<?xml version="1.0" encoding="utf-8" ?>
<svg xmlns="http://www.w3.org/2000/svg" xmlns:xlink="http://www.w3.org/1999/xlink" width="42" height="51">
	<defs>
		<clipPath id="clip_0">
			<rect x="-756" y="-2921" width="1280" height="4993" clip-rule="evenodd"/>
		</clipPath>
	</defs>
	<g clip-path="url(#clip_0)">
		<path fill="rgb(124,139,228)" stroke="none" transform="translate(11 17)" d="M8.12357 13.177L2.42657 6.92069L0 9.86182L8.32104 19L21 2.71333L18.3815 0L8.12357 13.177Z"/>
	</g>
	<defs>
		<clipPath id="clip_1">
			<rect x="-756" y="-2921" width="1280" height="4993" clip-rule="evenodd"/>
		</clipPath>
	</defs>
	<g clip-path="url(#clip_1)">
		<path fill="rgb(124,139,228)" stroke="none" d="M37.1367 6.49385C32.3797 5.62792 27.998 2.98941 25.8095 1.49357C24.3795 0.516723 22.716 0 21 0C19.2839 0 17.6216 0.516723 16.1916 1.49357C14.003 2.98941 9.62138 5.62792 4.8633 6.49385C2.04554 7.00661 0 9.48213 0 12.3804L0 24.4042C0 28.3762 1.09484 32.2485 3.25249 35.913C4.94111 38.7797 7.28066 41.5196 10.2071 44.0568C15.1265 48.3225 19.9978 50.5466 20.2026 50.6395L21 51L21.7985 50.6395C22.0033 50.5473 26.8746 48.3225 31.7939 44.0568C34.7194 41.5196 37.0589 38.7797 38.7475 35.913C40.9063 32.2485 42 28.3762 42 24.4042L42 12.3804C42 9.48213 39.9555 7.00661 37.1367 6.49385ZM38.0748 24.4042C38.0748 30.326 35.1289 35.8968 29.3183 40.9616C25.94 43.9057 22.5113 45.8249 21 46.6036C17.5278 44.8118 3.92519 36.9873 3.92519 24.4042L3.92519 12.3804C3.92519 11.4143 4.61047 10.5886 5.55544 10.4171C11.0217 9.42213 15.9387 6.47065 18.3836 4.79993C18.7645 4.53958 19.1764 4.33866 19.6065 4.2017C20.055 4.05909 20.5241 3.98551 21 3.98551C21.9324 3.98551 22.8373 4.26736 23.6176 4.79993C26.0611 6.47065 30.9783 9.42213 36.4445 10.4165C37.3895 10.5886 38.0748 11.4143 38.0748 12.3799L38.0748 24.4042Z" fill-rule="evenodd"/>
	</g>

</svg>