<?xml version="1.0" encoding="UTF-8"?>
<svg width="48px" height="48px" viewBox="0 0 48 48" version="1.1" xmlns="http://www.w3.org/2000/svg" xmlns:xlink="http://www.w3.org/1999/xlink">
    <!-- Generator: Sketch 51.3 (57544) - http://www.bohemiancoding.com/sketch -->
    <title>Etherscan</title>
    <desc>Created with Sketch.</desc>
    <defs>
        <path d="M29.7709091,30.7724647 L29.7613091,30.7772529 C28.9570909,31.1820765 27.9833455,31.6715647 26.7709091,32.2729235 L26.7709091,21.47406 C26.7709091,20.2721041 25.7941091,19.2975894 24.5890909,19.2975894 L23.412,19.2975894 C22.2069818,19.2975894 21.2301164,20.2721041 21.2301164,21.47406 L21.2301164,32.8605706 C21.2301164,33.5137294 21.5188145,34.0998529 21.9759273,34.4988 C20.6100873,35.0487941 19.2592364,35.5095529 17.9382109,35.8734588 L17.9541818,35.7443941 C17.9605745,35.6769235 17.9637818,35.6083647 17.9637818,35.5393706 L17.9637818,25.6597176 C17.9637818,24.4576529 16.9868509,23.4832471 15.7819636,23.4832471 L14.6047636,23.4832471 C13.3998545,23.4832471 12.4229455,24.4576529 12.4229455,25.6597176 L12.4229455,35.5393706 C12.4229455,36.0079647 12.5710255,36.4421706 12.8235055,36.7969353 C5.46200727,37.3464941 0,33.9394471 0,24.8354882 C0,11.1193488 10.7450182,0 24,0 C37.2549818,0 48,11.1193488 48,24.8354882 C42.5923636,26.4273588 39.456,27.2707412 37.4136,27.8196471 C36.6785455,28.0172706 36.0853091,28.1765882 35.5780364,28.3195824 L35.5780364,17.1200524 C35.5780364,15.9180965 34.6012364,14.9435818 33.3962182,14.9435818 L32.2191273,14.9435818 C31.0141091,14.9435818 30.0373091,15.9180965 30.0373091,17.1200524 L30.0373091,28.5067588 C30.0373091,29.2017059 30.3643636,29.8206941 30.8725091,30.2192059 C30.5421818,30.3839647 30.1778182,30.5672235 29.7709091,30.7724647 Z" id="path-1"></path>
        <path d="M0.8277715,17.0643636 C5.0794825,20.7590545 10.6623445,23 16.77645,23 C29.547235,23 40.00118,13.2206545 40.85043,0.8456 C29.560995,9.57352727 15.826365,15.368 0.8277715,17.0643636 Z" id="path-3"></path>
    </defs>
    <g id="Page-1" stroke="none" stroke-width="1" fill="none" fill-rule="evenodd">
        <g id="lp-1" transform="translate(-943.000000, -2924.000000)">
            <g id="contracts" transform="translate(70.000000, 2879.000000)">
                <g id="Etherscan" transform="translate(873.000000, 45.000000)">
                    <g id="Clipped">
                        <mask id="mask-2" fill="white">
                            <use xlink:href="#path-1"></use>
                        </mask>
                        <g id="Shape"></g>
                        <path d="M29.7613091,30.7772529 L28.2977455,27.8570824 L28.2868364,27.8625235 L29.7613091,30.7772529 Z M29.7709091,30.7724647 L31.2344727,33.6924176 L31.2466909,33.6863235 L29.7709091,30.7724647 Z M26.7709091,32.2729235 L23.4981818,32.2729235 L23.4981818,37.5430294 L28.2283636,35.1961412 L26.7709091,32.2729235 Z M21.9759273,34.4988 L23.2008,37.5262706 L28.1360727,35.5389353 L24.1313455,32.0422176 L21.9759273,34.4988 Z M17.9382109,35.8734588 L14.6901382,35.4734235 L14.0902473,40.3206412 L18.8095418,39.0204176 L17.9382109,35.8734588 Z M17.9541818,35.7443941 L21.2022545,36.1444294 L21.2079927,36.0980706 L21.2124,36.0514941 L17.9541818,35.7443941 Z M12.8235055,36.7969353 L13.0676945,40.0527176 L18.8454982,39.6213412 L15.4925673,34.9077588 L12.8235055,36.7969353 Z M48,24.8354882 L48.9264,27.9665588 L51.2727273,27.2759647 L51.2727273,24.8354882 L48,24.8354882 Z M37.4136,27.8196471 L36.5622545,24.6672471 L36.5618182,24.6674647 L37.4136,27.8196471 Z M35.5780364,28.3195824 L32.3053091,28.3195824 L32.3053091,32.6346529 L36.468,31.4613176 L35.5780364,28.3195824 Z M30.8725091,30.2192059 L32.3360727,33.1393765 L36.9541091,30.8360176 L32.8952727,27.6527118 L30.8725091,30.2192059 Z M31.2248727,33.6972059 L31.2344727,33.6924176 L28.3073455,27.8522941 L28.2977455,27.8570824 L31.2248727,33.6972059 Z M28.2283636,35.1961412 C29.4490909,34.5904294 30.4293818,34.0976765 31.2357818,33.6917647 L28.2868364,27.8625235 C27.4845818,28.2664765 26.5173818,28.7524824 25.3134545,29.3499235 L28.2283636,35.1961412 Z M23.4981818,21.47406 L23.4981818,32.2729235 L30.0436364,32.2729235 L30.0436364,21.47406 L23.4981818,21.47406 Z M24.5890909,22.5623824 C23.9864727,22.5623824 23.4981818,22.0750706 23.4981818,21.47406 L30.0436364,21.47406 C30.0436364,18.4690506 27.6015273,16.0328835 24.5890909,16.0328835 L24.5890909,22.5623824 Z M23.412,22.5623824 L24.5890909,22.5623824 L24.5890909,16.0328835 L23.412,16.0328835 L23.412,22.5623824 Z M24.5029091,21.47406 C24.5029091,22.0750706 24.0144,22.5623824 23.412,22.5623824 L23.412,16.0328835 C20.3995636,16.0328835 17.9573891,18.4690506 17.9573891,21.47406 L24.5029091,21.47406 Z M24.5029091,32.8605706 L24.5029091,21.47406 L17.9573891,21.47406 L17.9573891,32.8605706 L24.5029091,32.8605706 Z M24.1313455,32.0422176 C24.3534545,32.2361412 24.5029091,32.5323588 24.5029091,32.8605706 L17.9573891,32.8605706 C17.9573891,34.4951 18.6841527,35.9633471 19.8203345,36.9553824 L24.1313455,32.0422176 Z M18.8095418,39.0204176 C20.2607564,38.6206 21.7297527,38.1187059 23.2008,37.5262706 L20.7508145,31.4715471 C19.4904218,31.9791 18.2577164,32.3985059 17.06688,32.7267176 L18.8095418,39.0204176 Z M14.7061309,35.3443588 L14.6901382,35.4734235 L21.1862836,36.2734941 L21.2022545,36.1444294 L14.7061309,35.3443588 Z M14.6910545,35.5393706 C14.6910545,35.5082471 14.6924727,35.4742941 14.6959855,35.4372941 L21.2124,36.0514941 C21.2286764,35.8795529 21.2365091,35.7084824 21.2365091,35.5393706 L14.6910545,35.5393706 Z M14.6910545,25.6597176 L14.6910545,35.5393706 L21.2365091,35.5393706 L21.2365091,25.6597176 L14.6910545,25.6597176 Z M15.7819636,26.7479529 C15.1793891,26.7479529 14.6910545,26.2606412 14.6910545,25.6597176 L21.2365091,25.6597176 C21.2365091,22.6546647 18.7943345,20.2184324 15.7819636,20.2184324 L15.7819636,26.7479529 Z M14.6047636,26.7479529 L15.7819636,26.7479529 L15.7819636,20.2184324 L14.6047636,20.2184324 L14.6047636,26.7479529 Z M15.6956727,25.6597176 C15.6956727,26.2606412 15.2073382,26.7479529 14.6047636,26.7479529 L14.6047636,20.2184324 C11.5923709,20.2184324 9.15021818,22.6546647 9.15021818,25.6597176 L15.6956727,25.6597176 Z M15.6956727,35.5393706 L15.6956727,25.6597176 L9.15021818,25.6597176 L9.15021818,35.5393706 L15.6956727,35.5393706 Z M15.4925673,34.9077588 C15.6213164,35.0888412 15.6956727,35.3114941 15.6956727,35.5393706 L9.15021818,35.5393706 C9.15021818,36.7044353 9.52073455,37.7952824 10.1544436,38.6863294 L15.4925673,34.9077588 Z M-3.27272727,24.8354882 C-3.27272727,30.0398647 -1.69002545,34.2160765 1.54246036,36.9329647 C4.70921455,39.5945706 8.88285818,40.3650412 13.0676945,40.0527176 L12.5793382,33.5413706 C9.40265455,33.7786059 7.16454545,33.1202235 5.75991273,31.9394882 C4.42101818,30.8142529 3.27272727,28.7350706 3.27272727,24.8354882 L-3.27272727,24.8354882 Z M24,-3.26470588 C8.82543273,-3.26470588 -3.27272727,9.43019 -3.27272727,24.8354882 L3.27272727,24.8354882 C3.27272727,12.8084859 12.6646255,3.26470588 24,3.26470588 L24,-3.26470588 Z M51.2727273,24.8354882 C51.2727273,9.43019 39.1745455,-3.26470588 24,-3.26470588 L24,3.26470588 C35.3354182,3.26470588 44.7272727,12.8084859 44.7272727,24.8354882 L51.2727273,24.8354882 Z M38.2651636,30.9718294 C40.3210909,30.4192235 43.4845091,29.5686588 48.9264,27.9665588 L47.0736,21.7042653 C41.7,23.2862765 38.5909091,24.1220412 36.5622545,24.6672471 L38.2651636,30.9718294 Z M36.468,31.4613176 C36.9517091,31.3248529 37.5233455,31.1714118 38.2656,30.9718294 L36.5618182,24.6674647 C35.8339636,24.8631294 35.2186909,25.0283235 34.6882909,25.1778471 L36.468,31.4613176 Z M32.3053091,17.1200524 L32.3053091,28.3195824 L38.8507636,28.3195824 L38.8507636,17.1200524 L32.3053091,17.1200524 Z M33.3962182,18.2082876 C32.7938182,18.2082876 32.3053091,17.72115 32.3053091,17.1200524 L38.8507636,17.1200524 C38.8507636,14.1150429 36.4086545,11.6788759 33.3962182,11.6788759 L33.3962182,18.2082876 Z M32.2191273,18.2082876 L33.3962182,18.2082876 L33.3962182,11.6788759 L32.2191273,11.6788759 L32.2191273,18.2082876 Z M33.3100364,17.1200524 C33.3100364,17.72115 32.8217455,18.2082876 32.2191273,18.2082876 L32.2191273,11.6788759 C29.2066909,11.6788759 26.7645818,14.1150429 26.7645818,17.1200524 L33.3100364,17.1200524 Z M33.3100364,28.5067588 L33.3100364,17.1200524 L26.7645818,17.1200524 L26.7645818,28.5067588 L33.3100364,28.5067588 Z M32.8952727,27.6527118 C33.1409455,27.8453294 33.3100364,28.1561294 33.3100364,28.5067588 L26.7645818,28.5067588 C26.7645818,30.2472824 27.5877818,31.7960588 28.8497455,32.7857 L32.8952727,27.6527118 Z M31.2466909,33.6863235 C31.6533818,33.4813 32.0125091,33.3006529 32.3360727,33.1393765 L29.4089455,27.2992529 C29.0720727,27.4672765 28.7024727,27.6531471 28.2951273,27.8583882 L31.2466909,33.6863235 Z" id="Shape" fill="#7C8BE4" fill-rule="nonzero" mask="url(#mask-2)"></path>
                    </g>
                    <g id="Clipped" transform="translate(7.000000, 25.000000)">
                        <mask id="mask-4" fill="white">
                            <use xlink:href="#path-3"></use>
                        </mask>
                        <g id="Shape"></g>
                        <path d="M0.8277715,17.0643636 L0.470506,13.8119273 L-6.9125381,14.6469091 L-1.269833,19.5503273 L0.8277715,17.0643636 Z M40.85043,0.8456 L44.06769,1.07316364 L44.56262,-6.13829091 L38.896295,-1.75774545 L40.85043,0.8456 Z M-1.269833,19.5503273 C3.552187,23.7405091 9.874778,26.2727273 16.77645,26.2727273 L16.77645,19.7272727 C11.449911,19.7272727 6.606778,17.7776 2.925376,14.5786182 L-1.269833,19.5503273 Z M16.77645,26.2727273 C31.173065,26.2727273 43.096105,15.2316364 44.06769,1.07316364 L37.633385,0.618254545 C36.90647,11.2098909 27.92162,19.7272727 16.77645,19.7272727 L16.77645,26.2727273 Z M1.185037,20.3170182 C16.77516,18.5534545 31.05976,12.5290182 42.80478,3.44894545 L38.896295,-1.75774545 C28.06223,6.61803636 14.8774625,12.1823273 0.470506,13.8119273 L1.185037,20.3170182 Z" id="Shape" fill="#7C8BE4" fill-rule="nonzero" mask="url(#mask-4)"></path>
                    </g>
                </g>
            </g>
        </g>
    </g>
</svg>