<?xml version="1.0" encoding="UTF-8"?>
<svg width="47px" height="43px" viewBox="0 0 47 43" version="1.1" xmlns="http://www.w3.org/2000/svg" xmlns:xlink="http://www.w3.org/1999/xlink">
    <!-- Generator: Sketch 51.3 (57544) - http://www.bohemiancoding.com/sketch -->
    <title>ERC20</title>
    <desc>Created with Sketch.</desc>
    <defs></defs>
    <g id="Page-1" stroke="none" stroke-width="1" fill="none" fill-rule="evenodd">
        <g id="lp-1" transform="translate(-1118.000000, -2929.000000)" fill="#7C8BE4">
            <g id="contracts" transform="translate(70.000000, 2879.000000)">
                <g id="ERC20" transform="translate(1048.000000, 50.000000)">
                    <path d="M25.6092867,19.537051 C23.4635711,17.5867192 23.4635711,14.4130965 25.6092867,12.4627647 C27.7550023,10.5124118 31.2455858,10.5124118 33.3915152,12.4627647 C35.5361616,14.4130965 35.5361616,17.5867192 33.3915152,19.537051 C32.3180159,20.5124908 30.9094223,21 29.4997594,21 C28.0913796,21 26.6817168,20.5124908 25.6092867,19.537051 Z M28.2030065,14.8208461 C27.4876967,15.4713077 27.4876967,16.5290135 28.2030065,17.1789486 C28.9183163,17.8294102 30.0814164,17.8294102 30.7967262,17.1789486 C31.2092322,16.8046235 31.3835155,16.2945364 31.3197898,15.8050263 C31.2738133,15.4450862 31.09953,15.0964561 30.7967262,14.8208461 C30.4385367,14.4958891 29.9697896,14.3334 29.4997594,14.3334 C29.0299431,14.3334 28.5601268,14.4958891 28.2030065,14.8208461 Z" id="Shape"></path>
                    <path d="M45.4959069,1.44398981 C44.3766001,0.396169911 42.8212581,-0.121784452 41.2305966,0.0242784543 C38.9457465,0.233532689 35.4600337,0.729213432 31.8257649,1.90134282 C27.6856783,3.23611154 24.1988952,5.15720804 21.4615275,7.61229603 L21.4426904,7.62888647 L21.070637,7.97227886 L1.27031983,13.8355141 C0.662013279,14.0157601 0.200033248,14.4726124 0.0505692905,15.0413123 C0.0265295597,15.1314353 0.0118967154,15.2220887 0.00458031465,15.3127208 C-0.00169091167,15.399216 -0.00169091167,15.485202 0.00562551475,15.5706576 C0.00876111507,15.6084847 0.013987137,15.6457601 0.0202583376,15.6830568 L0.0369815607,15.7731798 L0.0620665345,15.8690097 C0.144637514,16.1492227 0.30559893,16.4102781 0.537633011,16.6221138 L9.5002496,24.8131022 C7.61887657,25.066414 5.80859204,25.8530809 4.36308295,27.1750122 C2.88829079,28.5247357 1.75111444,31.2532477 0.884641672,35.5164814 C0.283649471,38.4781506 0.04534329,41.0725813 0.0359363178,41.1818406 C-0.00900732953,41.6734013 0.185400489,42.1588096 0.566898956,42.5078028 C0.912860876,42.8239122 1.38006712,42.9993635 1.86504228,42.9993635 C1.91521094,42.9993635 1.96642635,42.9978785 2.01659501,42.9938475 C2.135748,42.9849371 4.97139164,42.7674793 8.2083696,42.2167276 C12.8689372,41.4247569 15.8519359,40.3837174 17.326728,39.0344183 C18.773286,37.7105776 19.6345251,36.0511094 19.9094177,34.3273585 L28.8614963,42.5084393 C28.9336337,42.5746313 29.0111225,42.634883 29.0926784,42.6881337 L29.1626752,42.7316252 L29.2356688,42.7721467 C29.2703462,42.790604 29.3058797,42.8082128 29.3414133,42.824973 C29.4687775,42.882891 29.604704,42.9274433 29.7438414,42.9569327 C29.8795539,42.9853614 30.0186913,43 30.1586849,43 C30.3059565,43 30.4555827,42.983452 30.601784,42.9501438 C31.226832,42.8077885 31.7243017,42.3769038 31.9135285,41.8138472 L38.0143822,23.6736233 C38.3123503,22.7868198 37.7688582,21.8471899 36.7998198,21.57436 C36.7685674,21.5654495 36.7381712,21.5597213 36.7069188,21.5529324 C36.0337079,21.2894372 35.2247845,21.4095163 34.6791518,21.9146549 L23.1724893,32.5605403 L11.3209801,21.7285959 L23.2279302,10.7526625 C23.3471603,10.6661673 23.4537609,10.5682583 23.5455916,10.459487 L24.0400645,10.0036954 C29.4824772,5.13026448 37.3747783,3.75355504 41.5964209,3.36662866 C42.2454433,3.30707704 42.6729162,3.60748704 42.869421,3.79187004 C43.2142677,4.11455621 43.3763092,4.55897631 43.315731,5.01164921 C42.9603955,7.63923958 42.1157245,11.5575534 40.1070086,15.300819 C39.6606986,16.133693 40.0359415,17.1400665 40.9461141,17.5487387 C41.8565008,17.9573896 42.9561143,17.613488 43.4034946,16.7811232 C45.6371849,12.6188536 46.5694054,8.30739725 46.9592042,5.4239492 C47.1578496,3.95191899 46.6248463,2.50112538 45.4959069,1.44398981 Z M32.46965,28.736041 L29.299458,38.1611926 L25.7698634,34.9349674 L32.46965,28.736041 Z M13.7291273,29.1711688 C13.3539059,29.1711688 13.0006254,29.303765 12.7341023,29.5445597 C12.4560844,29.8464548 12.1226684,30.9006478 11.8707655,32.1519318 C12.8961011,31.9856031 13.8022922,31.7764193 14.3343108,31.5759338 C14.5151252,31.5076203 14.6531067,31.4401553 14.7377664,31.3760848 C15.0011428,31.1321078 15.1453962,30.8094216 15.1453962,30.4665808 C15.1453962,30.2675804 15.09627,30.0760054 15.0042895,29.9024634 C14.9792019,29.8557896 14.9509891,29.8108129 14.9206786,29.7673214 L14.4921354,29.3761095 C14.404329,29.3243439 14.311321,29.2819131 14.2141175,29.2492414 C14.0615159,29.1981123 13.8974194,29.1711688 13.7291273,29.1711688 Z M12.7320046,35.4218607 C14.3573006,35.1503037 15.4098214,34.8286783 16.1163825,34.5159633 C15.8665774,35.3011451 15.4045984,36.0413503 14.7293968,36.6591426 C13.342411,37.9286719 8.1644878,38.9448893 3.92826789,39.4322069 C4.46133535,35.5570028 5.57237956,30.8198171 6.95936532,29.5502879 C7.332489,29.2082957 7.75058617,28.9225243 8.20107024,28.6961561 C8.55015526,28.5204926 8.91910481,28.3813196 9.30061955,28.2792735 C8.95883389,28.9218879 8.60345558,29.8787022 8.29930124,31.3538087 C8.24914756,31.5967249 8.20419548,31.8343374 8.1644878,32.0613421 C7.98157565,33.1013208 7.90421525,33.9123853 7.90004113,33.9539675 C7.85406158,34.4455282 8.04741974,34.9313608 8.42681531,35.2814148 C8.58151468,35.4244066 8.7612802,35.5387576 8.95673613,35.6217098 C9.19714414,35.7231194 9.46052052,35.7770065 9.72914132,35.7770065 L9.79186017,35.7765821 L9.87442216,35.7719148 C9.90683047,35.7693689 10.3625375,35.7356364 11.0314673,35.6590489 C11.5143597,35.6036767 12.1080269,35.5258162 12.7320046,35.4218607 Z M5.25673032,16.1859889 L8.72367029,19.3543173 L15.4275882,13.1741029 L5.25673032,16.1859889 Z" id="Shape"></path>
                    <path d="M36,11 C37.104582,11 38,10.3284221 38,9.50000947 C38,8.67157788 37.104582,8 36,8 C34.895418,8 34,8.67157788 34,9.50000947 C34,10.3284221 34.895418,11 36,11 Z" id="Shape" fill-rule="nonzero"></path>
                </g>
            </g>
        </g>
    </g>
</svg>