<?xml version="1.0" encoding="utf-8" ?>
<svg xmlns="http://www.w3.org/2000/svg" xmlns:xlink="http://www.w3.org/1999/xlink" width="139" height="97">
	<defs>
		<clipPath id="clip_0">
			<rect x="-178.672" y="-892.50079" width="1272.5759" height="4964.0405" clip-rule="evenodd"/>
		</clipPath>
		<linearGradient id="gradient_0" gradientUnits="userSpaceOnUse" x1="41.970779" y1="0" x2="41.970779" y2="64.941483">
			<stop offset="0" stop-color="rgb(134,136,221)"/>
			<stop offset="1" stop-color="rgb(144,124,201)"/>
		</linearGradient>
	</defs>
	<g clip-path="url(#clip_0)">
		<path fill="url(#gradient_0)" stroke="none" transform="matrix(0.9942 0 0 0.9942 33.0925 27.1342)" d="M69 0L5 0C2.23858 0 0 2.23858 0 5L0 51C0 53.7614 2.23858 56 5 56L60.7352 56L61.1046 57.767C61.3307 58.8482 62.3904 59.5414 63.4716 59.3153C63.8523 59.2357 64.2015 59.0469 64.4765 58.7719L67.0796 56.1688L75.2665 64.3557C76.0475 65.1367 77.3139 65.1367 78.0949 64.3557L83.3558 59.0948C84.1368 58.3138 84.1368 57.0475 83.3558 56.2664L75.1689 48.0795L77.7719 45.4764C78.553 44.6954 78.553 43.429 77.7719 42.648C77.4969 42.373 77.1477 42.1841 76.7671 42.1045L74 41.526L74 5C74 2.23858 71.7614 0 69 0ZM2 5C2 3.34315 3.34315 2 5 2L69 2C70.6569 2 72 3.34315 72 5L72 13L2 13L2 5ZM9 7.5C9 8.88071 7.88071 10 6.5 10C5.11929 10 4 8.88071 4 7.5C4 6.11929 5.11929 5 6.5 5C7.88071 5 9 6.11929 9 7.5ZM13.5 10C14.8807 10 16 8.88071 16 7.5C16 6.11929 14.8807 5 13.5 5C12.1193 5 11 6.11929 11 7.5C11 8.88071 12.1193 10 13.5 10ZM23 7.5C23 8.88071 21.8807 10 20.5 10C19.1193 10 18 8.88071 18 7.5C18 6.11929 19.1193 5 20.5 5C21.8807 5 23 6.11929 23 7.5ZM59.9567 38.5896L72 41.1078L72 15L2 15L2 51C2 52.6569 3.34315 54 5 54L60.317 54L57.5897 40.9566C57.5333 40.6867 57.5333 40.408 57.5897 40.138C57.8158 39.0568 58.8755 38.3636 59.9567 38.5896ZM76.3577 44.0622L72.3404 48.0795L81.9416 57.6806L76.6807 62.9415L67.0796 53.3404L63.0623 57.3576L59.5474 40.5473L76.3577 44.0622Z" fill-rule="evenodd"/>
	</g>
	<defs>
		<clipPath id="clip_1">
			<rect x="-178.672" y="-892.50079" width="1272.5759" height="4964.0405" clip-rule="evenodd"/>
		</clipPath>
	</defs>
	<g clip-path="url(#clip_1)">
		<path fill="none" stroke="rgb(255,255,255)" stroke-width="2" stroke-miterlimit="4" transform="matrix(0.9942 0 0 0.9942 131.518 11.2269)" d="M4 8C6.20914 8 8 6.20914 8 4C8 1.79086 6.20914 0 4 0C1.79086 0 0 1.79086 0 4C0 6.20914 1.79086 8 4 8Z"/>
	</g>
	<defs>
		<clipPath id="clip_2">
			<rect x="-178.672" y="-892.50079" width="1272.5759" height="4964.0405" clip-rule="evenodd"/>
		</clipPath>
	</defs>
	<g clip-path="url(#clip_2)">
		<path fill="none" stroke="rgb(255,255,255)" stroke-width="2" stroke-miterlimit="4" transform="matrix(0.9942 0 0 0.9942 16.1912 67.8964)" d="M4 8C6.20914 8 8 6.20914 8 4C8 1.79086 6.20914 0 4 0C1.79086 0 0 1.79086 0 4C0 6.20914 1.79086 8 4 8Z"/>
	</g>
	<defs>
		<clipPath id="clip_3">
			<rect x="-178.672" y="-892.50079" width="1272.5759" height="4964.0405" clip-rule="evenodd"/>
		</clipPath>
	</defs>
	<g clip-path="url(#clip_3)">
		<path fill="none" stroke="rgb(255,255,255)" stroke-width="2" stroke-miterlimit="4" transform="matrix(0.9942 0 0 0.9942 1.2782 33.0994)" d="M4 8C6.20914 8 8 6.20914 8 4C8 1.79086 6.20914 0 4 0C1.79086 0 0 1.79086 0 4C0 6.20914 1.79086 8 4 8Z"/>
	</g>
	<defs>
		<clipPath id="clip_4">
			<rect x="-178.672" y="-892.50079" width="1272.5759" height="4964.0405" clip-rule="evenodd"/>
		</clipPath>
	</defs>
	<g clip-path="url(#clip_4)">
		<path fill="none" stroke="rgb(255,255,255)" stroke-width="2" stroke-miterlimit="4" transform="matrix(0.9942 0 0 0.9942 124.559 63.9196)" d="M4 8C6.20914 8 8 6.20914 8 4C8 1.79086 6.20914 0 4 0C1.79086 0 0 1.79086 0 4C0 6.20914 1.79086 8 4 8Z"/>
	</g>
	<defs>
		<clipPath id="clip_5">
			<rect x="-178.672" y="-892.50079" width="1272.5759" height="4964.0405" clip-rule="evenodd"/>
		</clipPath>
	</defs>
	<g clip-path="url(#clip_5)">
		<path fill="rgb(255,255,255)" stroke="none" transform="matrix(0.703006 0.703006 -0.703006 0.703006 120.085 24.6279)" d="M9.09078e-13 1.10367e-13L4.15128 3.94616Q4.26267 4.05204 4.37838 4.1524Q4.49409 4.25275 4.61388 4.34737Q4.73368 4.44199 4.85732 4.53068Q4.98095 4.61938 5.10818 4.70196Q5.23541 4.78454 5.36597 4.86085Q5.49652 4.93716 5.63014 5.00704Q5.76376 5.07691 5.90018 5.14021Q6.03659 5.20352 6.17551 5.26011Q6.31444 5.31671 6.45559 5.36649Q6.59675 5.41627 6.73984 5.45912Q6.88294 5.50198 7.02768 5.53783Q7.17242 5.57368 7.31852 5.60244Q7.46462 5.63121 7.61178 5.65284Q7.75893 5.67446 7.90684 5.6889Q8.05475 5.70335 8.20312 5.71058Q8.35148 5.7178 8.5 5.7178Q8.64852 5.7178 8.79688 5.71058Q8.94525 5.70335 9.09316 5.6889Q9.24107 5.67446 9.38822 5.65284Q9.53538 5.63121 9.68148 5.60244Q9.82758 5.57368 9.97232 5.53783Q10.1171 5.50198 10.2602 5.45912Q10.4033 5.41627 10.5444 5.36649Q10.6856 5.31671 10.8245 5.26011Q10.9634 5.20352 11.0998 5.14021Q11.2362 5.07691 11.3699 5.00704Q11.5035 4.93716 11.634 4.86085Q11.7646 4.78454 11.8918 4.70196Q12.019 4.61938 12.1427 4.53068Q12.2663 4.44199 12.3861 4.34737Q12.5059 4.25275 12.6216 4.1524Q12.7373 4.05204 12.8487 3.94616L17 2.96249e-13L13.0538 4.15128Q12.948 4.26267 12.8476 4.37838Q12.7473 4.49409 12.6526 4.61388Q12.558 4.73368 12.4693 4.85732Q12.3806 4.98095 12.298 5.10818Q12.2155 5.23541 12.1391 5.36597Q12.0628 5.49652 11.993 5.63014Q11.9231 5.76376 11.8598 5.90018Q11.7965 6.03659 11.7399 6.17551Q11.6833 6.31444 11.6335 6.45559Q11.5837 6.59675 11.5409 6.73984Q11.498 6.88294 11.4622 7.02768Q11.4263 7.17242 11.3976 7.31852Q11.3688 7.46462 11.3472 7.61178Q11.3255 7.75893 11.3111 7.90684Q11.2967 8.05475 11.2894 8.20312Q11.2822 8.35148 11.2822 8.5Q11.2822 8.64852 11.2894 8.79688Q11.2967 8.94525 11.3111 9.09316Q11.3255 9.24107 11.3472 9.38822Q11.3688 9.53538 11.3976 9.68148Q11.4263 9.82758 11.4622 9.97232Q11.498 10.1171 11.5409 10.2602Q11.5837 10.4033 11.6335 10.5444Q11.6833 10.6856 11.7399 10.8245Q11.7965 10.9634 11.8598 11.0998Q11.9231 11.2362 11.993 11.3699Q12.0628 11.5035 12.1391 11.634Q12.2155 11.7646 12.298 11.8918Q12.3806 12.019 12.4693 12.1427Q12.558 12.2663 12.6526 12.3861Q12.7473 12.5059 12.8476 12.6216Q12.948 12.7373 13.0538 12.8487L17 17L12.8487 13.0538Q12.7373 12.948 12.6216 12.8476Q12.5059 12.7473 12.3861 12.6526Q12.2663 12.558 12.1427 12.4693Q12.019 12.3806 11.8918 12.298Q11.7646 12.2155 11.634 12.1391Q11.5035 12.0628 11.3699 11.993Q11.2362 11.9231 11.0998 11.8598Q10.9634 11.7965 10.8245 11.7399Q10.6856 11.6833 10.5444 11.6335Q10.4033 11.5837 10.2602 11.5409Q10.1171 11.498 9.97232 11.4622Q9.82758 11.4263 9.68148 11.3976Q9.53538 11.3688 9.38822 11.3472Q9.24107 11.3255 9.09316 11.3111Q8.94525 11.2967 8.79688 11.2894Q8.64852 11.2822 8.5 11.2822Q8.35148 11.2822 8.20312 11.2894Q8.05475 11.2967 7.90684 11.3111Q7.75893 11.3255 7.61178 11.3472Q7.46462 11.3688 7.31852 11.3976Q7.17242 11.4263 7.02768 11.4622Q6.88294 11.498 6.73984 11.5409Q6.59674 11.5837 6.45559 11.6335Q6.31444 11.6833 6.17551 11.7399Q6.03659 11.7965 5.90018 11.8598Q5.76376 11.9231 5.63014 11.993Q5.49652 12.0628 5.36597 12.1391Q5.23541 12.2155 5.10818 12.298Q4.98095 12.3806 4.85732 12.4693Q4.73368 12.558 4.61388 12.6526Q4.49409 12.7473 4.37838 12.8476Q4.26267 12.948 4.15128 13.0538L9.07626e-13 17L3.94616 12.8487Q4.05204 12.7373 4.1524 12.6216Q4.25275 12.5059 4.34737 12.3861Q4.44199 12.2663 4.53068 12.1427Q4.61938 12.019 4.70196 11.8918Q4.78454 11.7646 4.86085 11.634Q4.93716 11.5035 5.00704 11.3699Q5.07691 11.2362 5.14021 11.0998Q5.20352 10.9634 5.26011 10.8245Q5.31671 10.6856 5.36649 10.5444Q5.41627 10.4033 5.45912 10.2602Q5.50198 10.1171 5.53783 9.97232Q5.57368 9.82758 5.60244 9.68148Q5.63121 9.53538 5.65284 9.38822Q5.67446 9.24107 5.6889 9.09316Q5.70335 8.94525 5.71058 8.79688Q5.7178 8.64852 5.7178 8.5Q5.7178 8.35148 5.71058 8.20312Q5.70335 8.05475 5.6889 7.90684Q5.67446 7.75893 5.65284 7.61178Q5.63121 7.46462 5.60244 7.31852Q5.57368 7.17242 5.53783 7.02768Q5.50198 6.88294 5.45912 6.73984Q5.41627 6.59674 5.36649 6.45559Q5.31671 6.31444 5.26011 6.17551Q5.20352 6.03659 5.14021 5.90018Q5.07691 5.76376 5.00704 5.63014Q4.93716 5.49652 4.86085 5.36597Q4.78454 5.23541 4.70196 5.10818Q4.61938 4.98095 4.53068 4.85732Q4.44199 4.73368 4.34737 4.61388Q4.25275 4.49409 4.1524 4.37838Q4.05204 4.26267 3.94616 4.15128L9.09078e-13 1.10367e-13Z"/>
	</g>
	<defs>
		<clipPath id="clip_6">
			<rect x="-178.672" y="-892.50079" width="1272.5759" height="4964.0405" clip-rule="evenodd"/>
		</clipPath>
	</defs>
	<g clip-path="url(#clip_6)">
		<path fill="rgb(255,255,255)" stroke="none" transform="matrix(0.703006 0.703006 -0.703006 0.703006 26.6302 0.76709)" d="M9.09078e-13 1.10367e-13L4.15128 3.94616Q4.26267 4.05204 4.37838 4.1524Q4.49409 4.25275 4.61388 4.34737Q4.73368 4.44199 4.85732 4.53068Q4.98095 4.61938 5.10818 4.70196Q5.23541 4.78454 5.36597 4.86085Q5.49652 4.93716 5.63014 5.00704Q5.76376 5.07691 5.90018 5.14021Q6.03659 5.20352 6.17551 5.26011Q6.31444 5.31671 6.45559 5.36649Q6.59675 5.41627 6.73984 5.45912Q6.88294 5.50198 7.02768 5.53783Q7.17242 5.57368 7.31852 5.60244Q7.46462 5.63121 7.61178 5.65284Q7.75893 5.67446 7.90684 5.6889Q8.05475 5.70335 8.20312 5.71058Q8.35148 5.7178 8.5 5.7178Q8.64852 5.7178 8.79688 5.71058Q8.94525 5.70335 9.09316 5.6889Q9.24107 5.67446 9.38822 5.65284Q9.53538 5.63121 9.68148 5.60244Q9.82758 5.57368 9.97232 5.53783Q10.1171 5.50198 10.2602 5.45912Q10.4033 5.41627 10.5444 5.36649Q10.6856 5.31671 10.8245 5.26011Q10.9634 5.20352 11.0998 5.14021Q11.2362 5.07691 11.3699 5.00704Q11.5035 4.93716 11.634 4.86085Q11.7646 4.78454 11.8918 4.70196Q12.019 4.61938 12.1427 4.53068Q12.2663 4.44199 12.3861 4.34737Q12.5059 4.25275 12.6216 4.1524Q12.7373 4.05204 12.8487 3.94616L17 2.96249e-13L13.0538 4.15128Q12.948 4.26267 12.8476 4.37838Q12.7473 4.49409 12.6526 4.61388Q12.558 4.73368 12.4693 4.85732Q12.3806 4.98095 12.298 5.10818Q12.2155 5.23541 12.1391 5.36597Q12.0628 5.49652 11.993 5.63014Q11.9231 5.76376 11.8598 5.90018Q11.7965 6.03659 11.7399 6.17551Q11.6833 6.31444 11.6335 6.45559Q11.5837 6.59675 11.5409 6.73984Q11.498 6.88294 11.4622 7.02768Q11.4263 7.17242 11.3976 7.31852Q11.3688 7.46462 11.3472 7.61178Q11.3255 7.75893 11.3111 7.90684Q11.2967 8.05475 11.2894 8.20312Q11.2822 8.35148 11.2822 8.5Q11.2822 8.64852 11.2894 8.79688Q11.2967 8.94525 11.3111 9.09316Q11.3255 9.24107 11.3472 9.38822Q11.3688 9.53538 11.3976 9.68148Q11.4263 9.82758 11.4622 9.97232Q11.498 10.1171 11.5409 10.2602Q11.5837 10.4033 11.6335 10.5444Q11.6833 10.6856 11.7399 10.8245Q11.7965 10.9634 11.8598 11.0998Q11.9231 11.2362 11.993 11.3699Q12.0628 11.5035 12.1391 11.634Q12.2155 11.7646 12.298 11.8918Q12.3806 12.019 12.4693 12.1427Q12.558 12.2663 12.6526 12.3861Q12.7473 12.5059 12.8476 12.6216Q12.948 12.7373 13.0538 12.8487L17 17L12.8487 13.0538Q12.7373 12.948 12.6216 12.8476Q12.5059 12.7473 12.3861 12.6526Q12.2663 12.558 12.1427 12.4693Q12.019 12.3806 11.8918 12.298Q11.7646 12.2155 11.634 12.1391Q11.5035 12.0628 11.3699 11.993Q11.2362 11.9231 11.0998 11.8598Q10.9634 11.7965 10.8245 11.7399Q10.6856 11.6833 10.5444 11.6335Q10.4033 11.5837 10.2602 11.5409Q10.1171 11.498 9.97232 11.4622Q9.82758 11.4263 9.68148 11.3976Q9.53538 11.3688 9.38822 11.3472Q9.24107 11.3255 9.09316 11.3111Q8.94525 11.2967 8.79688 11.2894Q8.64852 11.2822 8.5 11.2822Q8.35148 11.2822 8.20312 11.2894Q8.05475 11.2967 7.90684 11.3111Q7.75893 11.3255 7.61178 11.3472Q7.46462 11.3688 7.31852 11.3976Q7.17242 11.4263 7.02768 11.4622Q6.88294 11.498 6.73984 11.5409Q6.59674 11.5837 6.45559 11.6335Q6.31444 11.6833 6.17551 11.7399Q6.03659 11.7965 5.90018 11.8598Q5.76376 11.9231 5.63014 11.993Q5.49652 12.0628 5.36597 12.1391Q5.23541 12.2155 5.10818 12.298Q4.98095 12.3806 4.85732 12.4693Q4.73368 12.558 4.61388 12.6526Q4.49409 12.7473 4.37838 12.8476Q4.26267 12.948 4.15128 13.0538L9.07626e-13 17L3.94616 12.8487Q4.05204 12.7373 4.1524 12.6216Q4.25275 12.5059 4.34737 12.3861Q4.44199 12.2663 4.53068 12.1427Q4.61938 12.019 4.70196 11.8918Q4.78454 11.7646 4.86085 11.634Q4.93716 11.5035 5.00704 11.3699Q5.07691 11.2362 5.14021 11.0998Q5.20352 10.9634 5.26011 10.8245Q5.31671 10.6856 5.36649 10.5444Q5.41627 10.4033 5.45912 10.2602Q5.50198 10.1171 5.53783 9.97232Q5.57368 9.82758 5.60244 9.68148Q5.63121 9.53538 5.65284 9.38822Q5.67446 9.24107 5.6889 9.09316Q5.70335 8.94525 5.71058 8.79688Q5.7178 8.64852 5.7178 8.5Q5.7178 8.35148 5.71058 8.20312Q5.70335 8.05475 5.6889 7.90684Q5.67446 7.75893 5.65284 7.61178Q5.63121 7.46462 5.60244 7.31852Q5.57368 7.17242 5.53783 7.02768Q5.50198 6.88294 5.45912 6.73984Q5.41627 6.59674 5.36649 6.45559Q5.31671 6.31444 5.26011 6.17551Q5.20352 6.03659 5.14021 5.90018Q5.07691 5.76376 5.00704 5.63014Q4.93716 5.49652 4.86085 5.36597Q4.78454 5.23541 4.70196 5.10818Q4.61938 4.98095 4.53068 4.85732Q4.44199 4.73368 4.34737 4.61388Q4.25275 4.49409 4.1524 4.37838Q4.05204 4.26267 3.94616 4.15128L9.09078e-13 1.10367e-13Z"/>
	</g>

</svg>