<?xml version="1.0" encoding="utf-8" ?>
<svg xmlns="http://www.w3.org/2000/svg" xmlns:xlink="http://www.w3.org/1999/xlink" width="139" height="98">
	<defs>
		<clipPath id="clip_0">
			<rect x="-570" y="-901" width="1280" height="4993" clip-rule="evenodd"/>
		</clipPath>
		<linearGradient id="gradient_0" gradientUnits="userSpaceOnUse" x1="53.5" y1="0" x2="53.5" y2="50">
			<stop offset="0" stop-color="rgb(134,136,221)"/>
			<stop offset="1" stop-color="rgb(144,124,201)"/>
		</linearGradient>
	</defs>
	<g clip-path="url(#clip_0)">
		<path fill="url(#gradient_0)" stroke="none" transform="matrix(0.866025 -0.5 0.5 0.866025 13.6677 54.0994)" d="M66 0C68.2091 0 70 1.79086 70 4L70 18C72.2091 18 74 19.7909 74 22L74 25C74 27.2091 72.2091 29 70 29L70 42C70 44.2091 68.2091 46 66 46C63.7909 46 62 44.2091 62 42L62 40.2444L53.2807 36.9505C45.4578 33.9952 37.2951 32.0328 28.9838 31.1093L24 30.5556L24 33L19.8597 33L19.1443 43.0149C19.0546 44.2718 19.1645 45.535 19.4701 46.7575L19.6595 47.5149C19.9274 48.5865 19.2759 49.6724 18.2043 49.9403C18.0457 49.9799 17.8827 50 17.7192 50L12.7808 50C11.863 50 11.0631 49.3754 10.8405 48.4851L10.5299 47.2425C10.1647 45.782 10.1285 44.2586 10.4237 42.7824L10.5194 42.3039C10.8306 40.748 10.8998 39.1535 10.7246 37.5765L10.2156 32.9962C4.54811 32.8455 0 28.2039 0 22.5C0 16.701 4.70101 12 10.5 12L24 12L24 14.5556L28.8341 14.1259C37.2442 13.3783 45.5257 11.5686 53.4811 8.74006L62 5.71111L62 4C62 1.79086 63.7909 0 66 0ZM77.0503 10.5355L85.5355 2.05025C85.9261 1.65973 86.5592 1.65973 86.9498 2.05025C87.3403 2.44078 87.3403 3.07394 86.9497 3.46447L78.4645 11.9497C78.0739 12.3403 77.4408 12.3403 77.0503 11.9497C76.6597 11.5592 76.6597 10.9261 77.0503 10.5355ZM64 4C64 2.89543 64.8954 2 66 2C67.1046 2 68 2.89543 68 4L68 42C68 43.1046 67.1046 44 66 44C64.8954 44 64 43.1046 64 42L64 4ZM29.2046 29.1215L24 28.5432L24 16.5634L29.0112 16.118C37.5894 15.3555 46.0366 13.5096 54.1511 10.6245L62 7.83377L62 38.1065L53.9875 35.0795C46.0081 32.0651 37.6822 30.0635 29.2046 29.1215ZM79.4042 15.9868L97.8143 8.17218C98.3227 7.95639 98.9098 8.19358 99.1256 8.70196C99.3414 9.21034 99.1042 9.7974 98.5958 10.0132L80.1857 17.8278C79.6773 18.0436 79.0902 17.8064 78.8745 17.298C78.6587 16.7897 78.8958 16.2026 79.4042 15.9868ZM10.5 14L22 14L22 31L10.5 31C5.80558 31 2 27.1944 2 22.5C2 17.8056 5.80558 14 10.5 14ZM72 25C72 26.1046 71.1046 27 70 27L70 20C71.1046 20 72 20.8954 72 22L72 25ZM82 22L106 22C106.552 22 107 22.4477 107 23C107 23.5523 106.552 24 106 24L82 24C81.4477 24 81 23.5523 81 23C81 22.4477 81.4477 22 82 22ZM36 27C36 27.5523 36.4477 28 37 28C43.5013 28 48.9976 29.2933 53.5039 31.8682C53.9834 32.1423 54.5942 31.9757 54.8682 31.4961C55.1423 31.0166 54.9757 30.4058 54.4961 30.1318C49.669 27.3734 43.8321 26 37 26C36.4477 26 36 26.4477 36 27ZM80.1857 28.1722L98.5958 35.9868C99.1042 36.2026 99.3413 36.7897 99.1255 37.298C98.9098 37.8064 98.3227 38.0436 97.8143 37.8278L79.4042 30.0132C78.8958 29.7974 78.6586 29.2103 78.8744 28.702C79.0902 28.1936 79.6773 27.9564 80.1857 28.1722ZM17.8546 33L12.2284 33L12.7123 37.3557C12.9103 39.1371 12.8321 40.9385 12.4806 42.6961L12.3849 43.1746C12.1477 44.3605 12.1768 45.5842 12.4701 46.7575L12.7808 48L17.7192 48L17.5299 47.2425C17.173 45.8151 17.0446 44.3401 17.1494 42.8724L17.8546 33ZM78.4645 34.0503L86.9498 42.5355C87.3403 42.9261 87.3403 43.5592 86.9498 43.9497C86.5592 44.3403 85.9261 44.3403 85.5355 43.9497L77.0503 35.4645C76.6597 35.0739 76.6597 34.4408 77.0503 34.0503C77.4408 33.6597 78.0739 33.6597 78.4645 34.0503Z" fill-rule="evenodd"/>
	</g>
	<defs>
		<clipPath id="clip_1">
			<rect x="-570" y="-901" width="1280" height="4993" clip-rule="evenodd"/>
		</clipPath>
	</defs>
	<g clip-path="url(#clip_1)">
		<path fill="none" stroke="rgb(255,255,255)" stroke-width="2" stroke-miterlimit="4" transform="translate(21 38)" d="M4 8C6.20914 8 8 6.20914 8 4C8 1.79086 6.20914 0 4 0C1.79086 0 0 1.79086 0 4C0 6.20914 1.79086 8 4 8Z"/>
	</g>
	<defs>
		<clipPath id="clip_2">
			<rect x="-570" y="-901" width="1280" height="4993" clip-rule="evenodd"/>
		</clipPath>
	</defs>
	<g clip-path="url(#clip_2)">
		<path fill="none" stroke="rgb(255,255,255)" stroke-width="2" stroke-miterlimit="4" transform="translate(130 18)" d="M4 8C6.20914 8 8 6.20914 8 4C8 1.79086 6.20914 0 4 0C1.79086 0 0 1.79086 0 4C0 6.20914 1.79086 8 4 8Z"/>
	</g>
	<defs>
		<clipPath id="clip_3">
			<rect x="-570" y="-901" width="1280" height="4993" clip-rule="evenodd"/>
		</clipPath>
	</defs>
	<g clip-path="url(#clip_3)">
		<path fill="none" stroke="rgb(255,255,255)" stroke-width="2" stroke-miterlimit="4" transform="translate(6 14)" d="M4 8C6.20914 8 8 6.20914 8 4C8 1.79086 6.20914 0 4 0C1.79086 0 0 1.79086 0 4C0 6.20914 1.79086 8 4 8Z"/>
	</g>
	<defs>
		<clipPath id="clip_4">
			<rect x="-570" y="-901" width="1280" height="4993" clip-rule="evenodd"/>
		</clipPath>
	</defs>
	<g clip-path="url(#clip_4)">
		<path fill="none" stroke="rgb(255,255,255)" stroke-width="2" stroke-miterlimit="4" transform="translate(73 69)" d="M4 8C6.20914 8 8 6.20914 8 4C8 1.79086 6.20914 0 4 0C1.79086 0 0 1.79086 0 4C0 6.20914 1.79086 8 4 8Z"/>
	</g>
	<defs>
		<clipPath id="clip_5">
			<rect x="-570" y="-901" width="1280" height="4993" clip-rule="evenodd"/>
		</clipPath>
	</defs>
	<g clip-path="url(#clip_5)">
		<path fill="rgb(255,255,255)" stroke="none" transform="matrix(0.707107 0.707107 -0.707107 0.707107 12.5 67.4792)" d="M9.09078e-13 1.10367e-13L4.15128 3.94616Q4.26267 4.05204 4.37838 4.1524Q4.49409 4.25275 4.61388 4.34737Q4.73368 4.44199 4.85732 4.53068Q4.98095 4.61938 5.10818 4.70196Q5.23541 4.78454 5.36597 4.86085Q5.49652 4.93716 5.63014 5.00704Q5.76376 5.07691 5.90018 5.14021Q6.03659 5.20352 6.17551 5.26011Q6.31444 5.31671 6.45559 5.36649Q6.59675 5.41627 6.73984 5.45912Q6.88294 5.50198 7.02768 5.53783Q7.17242 5.57368 7.31852 5.60244Q7.46462 5.63121 7.61178 5.65284Q7.75893 5.67446 7.90684 5.6889Q8.05475 5.70335 8.20312 5.71058Q8.35148 5.7178 8.5 5.7178Q8.64852 5.7178 8.79688 5.71058Q8.94525 5.70335 9.09316 5.6889Q9.24107 5.67446 9.38822 5.65284Q9.53538 5.63121 9.68148 5.60244Q9.82758 5.57368 9.97232 5.53783Q10.1171 5.50198 10.2602 5.45912Q10.4033 5.41627 10.5444 5.36649Q10.6856 5.31671 10.8245 5.26011Q10.9634 5.20352 11.0998 5.14021Q11.2362 5.07691 11.3699 5.00704Q11.5035 4.93716 11.634 4.86085Q11.7646 4.78454 11.8918 4.70196Q12.019 4.61938 12.1427 4.53068Q12.2663 4.44199 12.3861 4.34737Q12.5059 4.25275 12.6216 4.1524Q12.7373 4.05204 12.8487 3.94616L17 2.96249e-13L13.0538 4.15128Q12.948 4.26267 12.8476 4.37838Q12.7473 4.49409 12.6526 4.61388Q12.558 4.73368 12.4693 4.85732Q12.3806 4.98095 12.298 5.10818Q12.2155 5.23541 12.1391 5.36597Q12.0628 5.49652 11.993 5.63014Q11.9231 5.76376 11.8598 5.90018Q11.7965 6.03659 11.7399 6.17551Q11.6833 6.31444 11.6335 6.45559Q11.5837 6.59675 11.5409 6.73984Q11.498 6.88294 11.4622 7.02768Q11.4263 7.17242 11.3976 7.31852Q11.3688 7.46462 11.3472 7.61178Q11.3255 7.75893 11.3111 7.90684Q11.2967 8.05475 11.2894 8.20312Q11.2822 8.35148 11.2822 8.5Q11.2822 8.64852 11.2894 8.79688Q11.2967 8.94525 11.3111 9.09316Q11.3255 9.24107 11.3472 9.38822Q11.3688 9.53538 11.3976 9.68148Q11.4263 9.82758 11.4622 9.97232Q11.498 10.1171 11.5409 10.2602Q11.5837 10.4033 11.6335 10.5444Q11.6833 10.6856 11.7399 10.8245Q11.7965 10.9634 11.8598 11.0998Q11.9231 11.2362 11.993 11.3699Q12.0628 11.5035 12.1391 11.634Q12.2155 11.7646 12.298 11.8918Q12.3806 12.019 12.4693 12.1427Q12.558 12.2663 12.6526 12.3861Q12.7473 12.5059 12.8476 12.6216Q12.948 12.7373 13.0538 12.8487L17 17L12.8487 13.0538Q12.7373 12.948 12.6216 12.8476Q12.5059 12.7473 12.3861 12.6526Q12.2663 12.558 12.1427 12.4693Q12.019 12.3806 11.8918 12.298Q11.7646 12.2155 11.634 12.1391Q11.5035 12.0628 11.3699 11.993Q11.2362 11.9231 11.0998 11.8598Q10.9634 11.7965 10.8245 11.7399Q10.6856 11.6833 10.5444 11.6335Q10.4033 11.5837 10.2602 11.5409Q10.1171 11.498 9.97232 11.4622Q9.82758 11.4263 9.68148 11.3976Q9.53538 11.3688 9.38822 11.3472Q9.24107 11.3255 9.09316 11.3111Q8.94525 11.2967 8.79688 11.2894Q8.64852 11.2822 8.5 11.2822Q8.35148 11.2822 8.20312 11.2894Q8.05475 11.2967 7.90684 11.3111Q7.75893 11.3255 7.61178 11.3472Q7.46462 11.3688 7.31852 11.3976Q7.17242 11.4263 7.02768 11.4622Q6.88294 11.498 6.73984 11.5409Q6.59674 11.5837 6.45559 11.6335Q6.31444 11.6833 6.17551 11.7399Q6.03659 11.7965 5.90018 11.8598Q5.76376 11.9231 5.63014 11.993Q5.49652 12.0628 5.36597 12.1391Q5.23541 12.2155 5.10818 12.298Q4.98095 12.3806 4.85732 12.4693Q4.73368 12.558 4.61388 12.6526Q4.49409 12.7473 4.37838 12.8476Q4.26267 12.948 4.15128 13.0538L9.07626e-13 17L3.94616 12.8487Q4.05204 12.7373 4.1524 12.6216Q4.25275 12.5059 4.34737 12.3861Q4.44199 12.2663 4.53068 12.1427Q4.61938 12.019 4.70196 11.8918Q4.78454 11.7646 4.86085 11.634Q4.93716 11.5035 5.00704 11.3699Q5.07691 11.2362 5.14021 11.0998Q5.20352 10.9634 5.26011 10.8245Q5.31671 10.6856 5.36649 10.5444Q5.41627 10.4033 5.45912 10.2602Q5.50198 10.1171 5.53783 9.97232Q5.57368 9.82758 5.60244 9.68148Q5.63121 9.53538 5.65284 9.38822Q5.67446 9.24107 5.6889 9.09316Q5.70335 8.94525 5.71058 8.79688Q5.7178 8.64852 5.7178 8.5Q5.7178 8.35148 5.71058 8.20312Q5.70335 8.05475 5.6889 7.90684Q5.67446 7.75893 5.65284 7.61178Q5.63121 7.46462 5.60244 7.31852Q5.57368 7.17242 5.53783 7.02768Q5.50198 6.88294 5.45912 6.73984Q5.41627 6.59674 5.36649 6.45559Q5.31671 6.31444 5.26011 6.17551Q5.20352 6.03659 5.14021 5.90018Q5.07691 5.76376 5.00704 5.63014Q4.93716 5.49652 4.86085 5.36597Q4.78454 5.23541 4.70196 5.10818Q4.61938 4.98095 4.53068 4.85732Q4.44199 4.73368 4.34737 4.61388Q4.25275 4.49409 4.1524 4.37838Q4.05204 4.26267 3.94616 4.15128L9.09078e-13 1.10367e-13Z"/>
	</g>
	<defs>
		<clipPath id="clip_6">
			<rect x="-570" y="-901" width="1280" height="4993" clip-rule="evenodd"/>
		</clipPath>
	</defs>
	<g clip-path="url(#clip_6)">
		<path fill="rgb(255,255,255)" stroke="none" transform="matrix(0.707107 0.707107 -0.707107 0.707107 45.5 9.47913)" d="M9.09078e-13 1.10367e-13L4.15128 3.94616Q4.26267 4.05204 4.37838 4.1524Q4.49409 4.25275 4.61388 4.34737Q4.73368 4.44199 4.85732 4.53068Q4.98095 4.61938 5.10818 4.70196Q5.23541 4.78454 5.36597 4.86085Q5.49652 4.93716 5.63014 5.00704Q5.76376 5.07691 5.90018 5.14021Q6.03659 5.20352 6.17551 5.26011Q6.31444 5.31671 6.45559 5.36649Q6.59675 5.41627 6.73984 5.45912Q6.88294 5.50198 7.02768 5.53783Q7.17242 5.57368 7.31852 5.60244Q7.46462 5.63121 7.61178 5.65284Q7.75893 5.67446 7.90684 5.6889Q8.05475 5.70335 8.20312 5.71058Q8.35148 5.7178 8.5 5.7178Q8.64852 5.7178 8.79688 5.71058Q8.94525 5.70335 9.09316 5.6889Q9.24107 5.67446 9.38822 5.65284Q9.53538 5.63121 9.68148 5.60244Q9.82758 5.57368 9.97232 5.53783Q10.1171 5.50198 10.2602 5.45912Q10.4033 5.41627 10.5444 5.36649Q10.6856 5.31671 10.8245 5.26011Q10.9634 5.20352 11.0998 5.14021Q11.2362 5.07691 11.3699 5.00704Q11.5035 4.93716 11.634 4.86085Q11.7646 4.78454 11.8918 4.70196Q12.019 4.61938 12.1427 4.53068Q12.2663 4.44199 12.3861 4.34737Q12.5059 4.25275 12.6216 4.1524Q12.7373 4.05204 12.8487 3.94616L17 2.96249e-13L13.0538 4.15128Q12.948 4.26267 12.8476 4.37838Q12.7473 4.49409 12.6526 4.61388Q12.558 4.73368 12.4693 4.85732Q12.3806 4.98095 12.298 5.10818Q12.2155 5.23541 12.1391 5.36597Q12.0628 5.49652 11.993 5.63014Q11.9231 5.76376 11.8598 5.90018Q11.7965 6.03659 11.7399 6.17551Q11.6833 6.31444 11.6335 6.45559Q11.5837 6.59675 11.5409 6.73984Q11.498 6.88294 11.4622 7.02768Q11.4263 7.17242 11.3976 7.31852Q11.3688 7.46462 11.3472 7.61178Q11.3255 7.75893 11.3111 7.90684Q11.2967 8.05475 11.2894 8.20312Q11.2822 8.35148 11.2822 8.5Q11.2822 8.64852 11.2894 8.79688Q11.2967 8.94525 11.3111 9.09316Q11.3255 9.24107 11.3472 9.38822Q11.3688 9.53538 11.3976 9.68148Q11.4263 9.82758 11.4622 9.97232Q11.498 10.1171 11.5409 10.2602Q11.5837 10.4033 11.6335 10.5444Q11.6833 10.6856 11.7399 10.8245Q11.7965 10.9634 11.8598 11.0998Q11.9231 11.2362 11.993 11.3699Q12.0628 11.5035 12.1391 11.634Q12.2155 11.7646 12.298 11.8918Q12.3806 12.019 12.4693 12.1427Q12.558 12.2663 12.6526 12.3861Q12.7473 12.5059 12.8476 12.6216Q12.948 12.7373 13.0538 12.8487L17 17L12.8487 13.0538Q12.7373 12.948 12.6216 12.8476Q12.5059 12.7473 12.3861 12.6526Q12.2663 12.558 12.1427 12.4693Q12.019 12.3806 11.8918 12.298Q11.7646 12.2155 11.634 12.1391Q11.5035 12.0628 11.3699 11.993Q11.2362 11.9231 11.0998 11.8598Q10.9634 11.7965 10.8245 11.7399Q10.6856 11.6833 10.5444 11.6335Q10.4033 11.5837 10.2602 11.5409Q10.1171 11.498 9.97232 11.4622Q9.82758 11.4263 9.68148 11.3976Q9.53538 11.3688 9.38822 11.3472Q9.24107 11.3255 9.09316 11.3111Q8.94525 11.2967 8.79688 11.2894Q8.64852 11.2822 8.5 11.2822Q8.35148 11.2822 8.20312 11.2894Q8.05475 11.2967 7.90684 11.3111Q7.75893 11.3255 7.61178 11.3472Q7.46462 11.3688 7.31852 11.3976Q7.17242 11.4263 7.02768 11.4622Q6.88294 11.498 6.73984 11.5409Q6.59674 11.5837 6.45559 11.6335Q6.31444 11.6833 6.17551 11.7399Q6.03659 11.7965 5.90018 11.8598Q5.76376 11.9231 5.63014 11.993Q5.49652 12.0628 5.36597 12.1391Q5.23541 12.2155 5.10818 12.298Q4.98095 12.3806 4.85732 12.4693Q4.73368 12.558 4.61388 12.6526Q4.49409 12.7473 4.37838 12.8476Q4.26267 12.948 4.15128 13.0538L9.07626e-13 17L3.94616 12.8487Q4.05204 12.7373 4.1524 12.6216Q4.25275 12.5059 4.34737 12.3861Q4.44199 12.2663 4.53068 12.1427Q4.61938 12.019 4.70196 11.8918Q4.78454 11.7646 4.86085 11.634Q4.93716 11.5035 5.00704 11.3699Q5.07691 11.2362 5.14021 11.0998Q5.20352 10.9634 5.26011 10.8245Q5.31671 10.6856 5.36649 10.5444Q5.41627 10.4033 5.45912 10.2602Q5.50198 10.1171 5.53783 9.97232Q5.57368 9.82758 5.60244 9.68148Q5.63121 9.53538 5.65284 9.38822Q5.67446 9.24107 5.6889 9.09316Q5.70335 8.94525 5.71058 8.79688Q5.7178 8.64852 5.7178 8.5Q5.7178 8.35148 5.71058 8.20312Q5.70335 8.05475 5.6889 7.90684Q5.67446 7.75893 5.65284 7.61178Q5.63121 7.46462 5.60244 7.31852Q5.57368 7.17242 5.53783 7.02768Q5.50198 6.88294 5.45912 6.73984Q5.41627 6.59674 5.36649 6.45559Q5.31671 6.31444 5.26011 6.17551Q5.20352 6.03659 5.14021 5.90018Q5.07691 5.76376 5.00704 5.63014Q4.93716 5.49652 4.86085 5.36597Q4.78454 5.23541 4.70196 5.10818Q4.61938 4.98095 4.53068 4.85732Q4.44199 4.73368 4.34737 4.61388Q4.25275 4.49409 4.1524 4.37838Q4.05204 4.26267 3.94616 4.15128L9.09078e-13 1.10367e-13Z"/>
	</g>
	<defs>
		<clipPath id="clip_7">
			<rect x="-570" y="-901" width="1280" height="4993" clip-rule="evenodd"/>
		</clipPath>
	</defs>
	<g clip-path="url(#clip_7)">
		<path fill="rgb(255,255,255)" stroke="none" transform="matrix(0.707107 0.707107 -0.707107 0.707107 121.5 60.4792)" d="M9.09078e-13 1.10367e-13L4.15128 3.94616Q4.26267 4.05204 4.37838 4.1524Q4.49409 4.25275 4.61388 4.34737Q4.73368 4.44199 4.85732 4.53068Q4.98095 4.61938 5.10818 4.70196Q5.23541 4.78454 5.36597 4.86085Q5.49652 4.93716 5.63014 5.00704Q5.76376 5.07691 5.90018 5.14021Q6.03659 5.20352 6.17551 5.26011Q6.31444 5.31671 6.45559 5.36649Q6.59675 5.41627 6.73984 5.45912Q6.88294 5.50198 7.02768 5.53783Q7.17242 5.57368 7.31852 5.60244Q7.46462 5.63121 7.61178 5.65284Q7.75893 5.67446 7.90684 5.6889Q8.05475 5.70335 8.20312 5.71058Q8.35148 5.7178 8.5 5.7178Q8.64852 5.7178 8.79688 5.71058Q8.94525 5.70335 9.09316 5.6889Q9.24107 5.67446 9.38822 5.65284Q9.53538 5.63121 9.68148 5.60244Q9.82758 5.57368 9.97232 5.53783Q10.1171 5.50198 10.2602 5.45912Q10.4033 5.41627 10.5444 5.36649Q10.6856 5.31671 10.8245 5.26011Q10.9634 5.20352 11.0998 5.14021Q11.2362 5.07691 11.3699 5.00704Q11.5035 4.93716 11.634 4.86085Q11.7646 4.78454 11.8918 4.70196Q12.019 4.61938 12.1427 4.53068Q12.2663 4.44199 12.3861 4.34737Q12.5059 4.25275 12.6216 4.1524Q12.7373 4.05204 12.8487 3.94616L17 2.96249e-13L13.0538 4.15128Q12.948 4.26267 12.8476 4.37838Q12.7473 4.49409 12.6526 4.61388Q12.558 4.73368 12.4693 4.85732Q12.3806 4.98095 12.298 5.10818Q12.2155 5.23541 12.1391 5.36597Q12.0628 5.49652 11.993 5.63014Q11.9231 5.76376 11.8598 5.90018Q11.7965 6.03659 11.7399 6.17551Q11.6833 6.31444 11.6335 6.45559Q11.5837 6.59675 11.5409 6.73984Q11.498 6.88294 11.4622 7.02768Q11.4263 7.17242 11.3976 7.31852Q11.3688 7.46462 11.3472 7.61178Q11.3255 7.75893 11.3111 7.90684Q11.2967 8.05475 11.2894 8.20312Q11.2822 8.35148 11.2822 8.5Q11.2822 8.64852 11.2894 8.79688Q11.2967 8.94525 11.3111 9.09316Q11.3255 9.24107 11.3472 9.38822Q11.3688 9.53538 11.3976 9.68148Q11.4263 9.82758 11.4622 9.97232Q11.498 10.1171 11.5409 10.2602Q11.5837 10.4033 11.6335 10.5444Q11.6833 10.6856 11.7399 10.8245Q11.7965 10.9634 11.8598 11.0998Q11.9231 11.2362 11.993 11.3699Q12.0628 11.5035 12.1391 11.634Q12.2155 11.7646 12.298 11.8918Q12.3806 12.019 12.4693 12.1427Q12.558 12.2663 12.6526 12.3861Q12.7473 12.5059 12.8476 12.6216Q12.948 12.7373 13.0538 12.8487L17 17L12.8487 13.0538Q12.7373 12.948 12.6216 12.8476Q12.5059 12.7473 12.3861 12.6526Q12.2663 12.558 12.1427 12.4693Q12.019 12.3806 11.8918 12.298Q11.7646 12.2155 11.634 12.1391Q11.5035 12.0628 11.3699 11.993Q11.2362 11.9231 11.0998 11.8598Q10.9634 11.7965 10.8245 11.7399Q10.6856 11.6833 10.5444 11.6335Q10.4033 11.5837 10.2602 11.5409Q10.1171 11.498 9.97232 11.4622Q9.82758 11.4263 9.68148 11.3976Q9.53538 11.3688 9.38822 11.3472Q9.24107 11.3255 9.09316 11.3111Q8.94525 11.2967 8.79688 11.2894Q8.64852 11.2822 8.5 11.2822Q8.35148 11.2822 8.20312 11.2894Q8.05475 11.2967 7.90684 11.3111Q7.75893 11.3255 7.61178 11.3472Q7.46462 11.3688 7.31852 11.3976Q7.17242 11.4263 7.02768 11.4622Q6.88294 11.498 6.73984 11.5409Q6.59674 11.5837 6.45559 11.6335Q6.31444 11.6833 6.17551 11.7399Q6.03659 11.7965 5.90018 11.8598Q5.76376 11.9231 5.63014 11.993Q5.49652 12.0628 5.36597 12.1391Q5.23541 12.2155 5.10818 12.298Q4.98095 12.3806 4.85732 12.4693Q4.73368 12.558 4.61388 12.6526Q4.49409 12.7473 4.37838 12.8476Q4.26267 12.948 4.15128 13.0538L9.07626e-13 17L3.94616 12.8487Q4.05204 12.7373 4.1524 12.6216Q4.25275 12.5059 4.34737 12.3861Q4.44199 12.2663 4.53068 12.1427Q4.61938 12.019 4.70196 11.8918Q4.78454 11.7646 4.86085 11.634Q4.93716 11.5035 5.00704 11.3699Q5.07691 11.2362 5.14021 11.0998Q5.20352 10.9634 5.26011 10.8245Q5.31671 10.6856 5.36649 10.5444Q5.41627 10.4033 5.45912 10.2602Q5.50198 10.1171 5.53783 9.97232Q5.57368 9.82758 5.60244 9.68148Q5.63121 9.53538 5.65284 9.38822Q5.67446 9.24107 5.6889 9.09316Q5.70335 8.94525 5.71058 8.79688Q5.7178 8.64852 5.7178 8.5Q5.7178 8.35148 5.71058 8.20312Q5.70335 8.05475 5.6889 7.90684Q5.67446 7.75893 5.65284 7.61178Q5.63121 7.46462 5.60244 7.31852Q5.57368 7.17242 5.53783 7.02768Q5.50198 6.88294 5.45912 6.73984Q5.41627 6.59674 5.36649 6.45559Q5.31671 6.31444 5.26011 6.17551Q5.20352 6.03659 5.14021 5.90018Q5.07691 5.76376 5.00704 5.63014Q4.93716 5.49652 4.86085 5.36597Q4.78454 5.23541 4.70196 5.10818Q4.61938 4.98095 4.53068 4.85732Q4.44199 4.73368 4.34737 4.61388Q4.25275 4.49409 4.1524 4.37838Q4.05204 4.26267 3.94616 4.15128L9.09078e-13 1.10367e-13Z"/>
	</g>

</svg>