<?xml version="1.0" encoding="UTF-8"?>
<svg width="148px" height="93px" viewBox="0 0 148 93" version="1.1" xmlns="http://www.w3.org/2000/svg" xmlns:xlink="http://www.w3.org/1999/xlink">
    <!-- Generator: Sketch 51.3 (57544) - http://www.bohemiancoding.com/sketch -->
    <title>icon_support</title>
    <desc>Created with Sketch.</desc>
    <defs>
        <linearGradient x1="50%" y1="0%" x2="50%" y2="100%" id="linearGradient-1">
            <stop stop-color="#8688DD" offset="0%"></stop>
            <stop stop-color="#907CC9" offset="100%"></stop>
        </linearGradient>
    </defs>
    <g id="Page-1" stroke="none" stroke-width="1" fill="none" fill-rule="evenodd">
        <g id="lp-1" transform="translate(-955.000000, -900.000000)" fill-rule="nonzero">
            <g id="offer" transform="translate(70.000000, 786.000000)">
                <g id="support" transform="translate(778.000000, 84.000000)">
                    <g id="icon_support" transform="translate(107.000000, 31.000000)">
                        <circle id="Oval-5-Copy-6" stroke="#FFFFFF" stroke-width="2" cx="24" cy="18" r="4"></circle>
                        <circle id="Oval-5-Copy-8" stroke="#FFFFFF" stroke-width="2" cx="118" cy="85" r="4"></circle>
                        <path d="M18,71 L18,71 C22.7624721,75.5271488 30.2375279,75.5271488 35,71 L35,71 C30.4728512,75.7624721 30.4728512,83.2375279 35,88 L35,88 C30.2375279,83.4728512 22.7624721,83.4728512 18,88 L18,88 C22.5271488,83.2375279 22.5271488,75.7624721 18,71 Z" id="Rectangle-12-Copy-5" fill="#FFFFFF" transform="translate(26.500000, 79.500000) rotate(45.000000) translate(-26.500000, -79.500000) "></path>
                        <path d="M4,37 L4,37 C8.76247214,41.5271488 16.2375279,41.5271488 21,37 L21,37 C16.4728512,41.7624721 16.4728512,49.2375279 21,54 L21,54 C16.2375279,49.4728512 8.76247214,49.4728512 4,54 L4,54 C8.52714876,49.2375279 8.52714876,41.7624721 4,37 Z" id="Rectangle-12-Copy-6" fill="#FFFFFF" transform="translate(12.500000, 45.500000) rotate(45.000000) translate(-12.500000, -45.500000) "></path>
                        <path d="M127,13 L127,13 C131.762472,17.5271488 139.237528,17.5271488 144,13 L144,13 C139.472851,17.7624721 139.472851,25.2375279 144,30 L144,30 C139.237528,25.4728512 131.762472,25.4728512 127,30 L127,30 C131.527149,25.2375279 131.527149,17.7624721 127,13 Z" id="Rectangle-12-Copy-4" fill="#FFFFFF" transform="translate(135.500000, 21.500000) rotate(45.000000) translate(-135.500000, -21.500000) "></path>
                        <circle id="Oval-5-Copy-9" stroke="#FFFFFF" stroke-width="2" cx="106" cy="4" r="4"></circle>
                        <path d="M92.5762995,62.9506173 L93.2174157,62.9506173 C94.87427,62.9506173 96.2174157,64.293763 96.2174157,65.9506173 L96.2174157,73.9506173 C96.2174157,75.6074715 94.87427,76.9506173 93.2174157,76.9506173 L80.2174157,76.9506173 C78.5605615,76.9506173 77.2174157,75.6074715 77.2174157,73.9506173 L77.2174157,65.9506173 C77.2174157,64.293763 78.5605615,62.9506173 80.2174157,62.9506173 L81.2174157,62.9506173 L81.2174157,57.9546185 C81.2174157,53.6756173 82.4110988,50.9330058 85.1343702,50.7060017 C87.3171627,49.966583 88.4710711,49.5343437 88.5960954,49.4092837 L93.0103089,44.9938086 C93.8481187,44.1557594 95.1370351,43.8226462 96.3334623,43.994469 C96.3288796,43.9937985 96.3242938,43.9931477 96.3197066,43.9925043 C96.9199743,42.9870923 97.2174157,41.9721258 97.2174157,40.9506173 C97.2174157,35.2395569 98.7722378,33 101.960149,33 C103.241517,33 103.739711,33.9544265 103.903771,35.7279771 C104.010664,36.8835211 104.015771,37.8213251 103.980264,42.4730962 C103.966518,44.2739171 103.960149,45.5469138 103.960149,47 C103.960149,50.3362061 103.356419,52.5963645 101.817416,53.7506173 C99.3528549,55.5990379 96.2669259,58.6683067 92.5762995,62.9506173 Z M90.2174157,62.9506173 L90.2174157,62.6320481 L90.4559043,62.3518485 C94.4997882,57.6007009 97.8804616,54.2033329 100.617416,52.1506173 C101.495878,51.4917709 101.960149,49.7536965 101.960149,47 C101.960149,45.5408463 101.966541,44.2633058 101.980322,42.4578306 C102.014981,37.9172588 102.009803,36.9665208 101.912274,35.9121988 C101.872813,35.4856115 101.818841,35.1850044 101.761223,35.0047727 C100.005844,35.0916615 99.2174157,36.3901045 99.2174157,40.9506173 C99.2174157,42.2727433 98.8709302,43.5468657 98.1834181,44.7760382 C97.8815083,44.5303381 97.535989,44.3394906 97.1663318,44.2034955 C97.6386667,44.3773833 98.0716149,44.6408001 98.4245225,44.9938086 C99.4504934,46.0200727 99.4504934,47.4715359 98.6118429,49.1493163 L98.5599383,49.2531552 L92.7538583,55.231352 C92.4002942,55.6557502 91.7697295,55.7130906 91.3454526,55.3594255 C90.9211757,55.0057604 90.8638516,54.3750154 91.2174157,53.9506173 L96.8724499,48.1537272 C97.3173052,47.2273682 97.3070628,46.705265 97.0103089,46.4084263 C96.4008332,45.7987764 95.0339982,45.7987764 94.4245225,46.4084263 L90.0103089,50.8239015 C89.6352362,51.1990814 88.0376051,51.8254869 85.2174157,52.703118 C84.0237326,52.8060873 83.2174157,54.9537611 83.2174157,57.9546185 L83.2174157,62.9506173 L90.2174157,62.9506173 Z M81.2174291,62.9506173 L83.2174023,62.9506173 C83.2144789,62.4006732 82.7678898,61.9557617 82.2174157,61.9557617 C81.6669416,61.9557617 81.2203525,62.4006732 81.2174301,62.9506173 Z M62.7825843,62.9506173 L69.7825843,62.9506173 L69.7825843,57.9546185 C69.7825843,54.9537611 68.9762674,52.8060873 67.7825843,52.703118 C64.9623949,51.8254869 63.3647638,51.1990814 62.9896911,50.8239015 L58.5754775,46.4084263 C57.9660018,45.7987764 56.5991668,45.7987764 55.9896911,46.4084263 C55.6929372,46.705265 55.6826948,47.2273682 56.1275501,48.1537272 L61.7825843,53.9506173 C62.1361484,54.3750154 62.0788243,55.0057604 61.6545474,55.3594255 C61.2302705,55.7130906 60.5997058,55.6557502 60.2461417,55.231352 L54.4400617,49.2531552 L54.3881571,49.1493163 C53.5495066,47.4715359 53.5495066,46.0200727 54.5754775,44.9938086 C54.9283851,44.6408001 55.3613333,44.3773833 55.8336944,44.2035581 C55.464011,44.3394906 55.1184917,44.5303381 54.8165819,44.7760382 C54.1290698,43.5468657 53.7825843,42.2727433 53.7825843,40.9506173 C53.7825843,36.3901045 52.9941556,35.0916615 51.2387773,35.0047727 C51.1811593,35.1850044 51.1271873,35.4856115 51.0877263,35.9121988 C50.9901971,36.9665208 50.9850195,37.9172588 51.0196779,42.4578306 C51.0334592,44.2633058 51.0398512,45.5408463 51.0398512,47 C51.0398512,49.7536965 51.5041225,51.4917709 52.3825843,52.1506173 C55.1195384,54.2033329 58.5002118,57.6007009 62.5440957,62.3518485 L62.7825843,62.6320481 L62.7825843,62.9506173 Z M60.4237005,62.9506173 C56.7330741,58.6683067 53.6471451,55.5990379 51.1825843,53.7506173 C49.6435806,52.5963645 49.0398512,50.3362061 49.0398512,47 C49.0398512,45.5469138 49.033482,44.2739171 49.0197362,42.4730962 C48.9842289,37.8213251 48.9893362,36.8835211 49.0962287,35.7279771 C49.2602895,33.9544265 49.7584829,33 51.0398512,33 C54.2277622,33 55.7825843,35.2395569 55.7825843,40.9506173 C55.7825843,41.9721258 56.0800257,42.9870923 56.6802934,43.9925043 C56.6757062,43.9931477 56.6711204,43.9937985 56.6665359,43.9944567 C57.8629649,43.8226462 59.1518813,44.1557594 59.9896911,44.9938086 L64.4039046,49.4092837 C64.5289289,49.5343437 65.6828373,49.966583 67.8656298,50.7060017 C70.5889012,50.9330058 71.7825843,53.6756173 71.7825843,57.9546185 L71.7825843,62.9506173 L72.7825843,62.9506173 C74.4394385,62.9506173 75.7825843,64.293763 75.7825843,65.9506173 L75.7825843,73.9506173 C75.7825843,75.6074715 74.4394385,76.9506173 72.7825843,76.9506173 L59.7825843,76.9506173 C58.12573,76.9506173 56.7825843,75.6074715 56.7825843,73.9506173 L56.7825843,65.9506173 C56.7825843,64.293763 58.12573,62.9506173 59.7825843,62.9506173 L60.4237005,62.9506173 Z M69.7825977,62.9506173 L71.7825709,62.9506173 C71.7796475,62.4006732 71.3330584,61.9557617 70.7825843,61.9557617 C70.2321102,61.9557617 69.7855211,62.4006732 69.7825987,62.9506173 Z M68.5853883,32.3688702 C68.2985309,33.192885 68.1426388,34.0782372 68.1426388,35 C68.1426388,35.9217628 68.2985309,36.807115 68.5853883,37.6311298 L65.000334,39.7009619 L66.500334,42.2990381 L70.0871943,40.2281633 C71.243338,41.5660594 72.8353955,42.5167824 74.6426388,42.8596042 L74.6426388,47 L77.6426388,47 L77.6426388,42.8596042 C79.449882,42.5167824 81.0419396,41.5660594 82.1980833,40.2281633 L85.7849436,42.2990381 L87.2849436,39.7009619 L83.6998893,37.6311298 C83.9867467,36.807115 84.1426388,35.9217628 84.1426388,35 C84.1426388,34.0782372 83.9867467,33.192885 83.6998893,32.3688702 L87.2849436,30.2990381 L85.7849436,27.7009619 L82.1980833,29.7718367 C81.0419396,28.4339406 79.449882,27.4832176 77.6426388,27.1403958 L77.6426388,23 L74.6426388,23 L74.6426388,27.1403958 C72.8353955,27.4832176 71.243338,28.4339406 70.0871943,29.7718367 L66.500334,27.7009619 L65.000334,30.2990381 L68.5853883,32.3688702 Z M72.6426388,25.6296077 L72.6426388,23 C72.6426388,21.8954305 73.5380693,21 74.6426388,21 L77.6426388,21 C78.7472083,21 79.6426388,21.8954305 79.6426388,23 L79.6426388,25.6296077 C80.6916787,26.0216122 81.6572483,26.5847351 82.5053855,27.2850146 L84.7849436,25.9689111 C85.7415289,25.4166263 86.9647097,25.7443766 87.5169944,26.7009619 L89.0169944,29.2990381 C89.5692792,30.2556234 89.2415289,31.4788042 88.2849436,32.0310889 L86.0065755,33.3465054 C86.096071,33.8843671 86.1426388,34.4367453 86.1426388,35 C86.1426388,35.5632547 86.096071,36.1156329 86.0065755,36.6534946 L88.2849436,37.9689111 C89.2415289,38.5211958 89.5692792,39.7443766 89.0169944,40.7009619 L87.5169944,43.2990381 C86.9647097,44.2556234 85.7415289,44.5833737 84.7849436,44.0310889 L82.5053855,42.7149854 C81.6572483,43.4152649 80.6916787,43.9783878 79.6426388,44.3703923 L79.6426388,47 C79.6426388,48.1045695 78.7472083,49 77.6426388,49 L74.6426388,49 C73.5380693,49 72.6426388,48.1045695 72.6426388,47 L72.6426388,44.3703923 C71.5935989,43.9783878 70.6280293,43.4152649 69.7798921,42.7149854 L67.500334,44.0310889 C66.5437487,44.5833737 65.3205679,44.2556234 64.7682831,43.2990381 L63.2682831,40.7009619 C62.7159984,39.7443766 63.0437487,38.5211958 64.000334,37.9689111 L66.2787021,36.6534946 C66.1892066,36.1156329 66.1426388,35.5632547 66.1426388,35 C66.1426388,34.4367453 66.1892066,33.8843671 66.2787021,33.3465054 L64.000334,32.0310889 C63.0437487,31.4788042 62.7159984,30.2556234 63.2682831,29.2990381 L64.7682831,26.7009619 C65.3205679,25.7443766 66.5437487,25.4166263 67.500334,25.9689111 L69.7798921,27.2850146 C70.6280293,26.5847351 71.5935989,26.0216122 72.6426388,25.6296077 Z M76.5,89 C55.2370371,89 38,71.7629629 38,50.5 C38,29.2370371 55.2370371,12 76.5,12 C97.7629629,12 115,29.2370371 115,50.5 C115,71.7629629 97.7629629,89 76.5,89 Z M76.5,87 C96.6583934,87 113,70.6583934 113,50.5 C113,30.3416066 96.6583934,14 76.5,14 C56.3416066,14 40,30.3416066 40,50.5 C40,70.6583934 56.3416066,87 76.5,87 Z M76.1426388,40 C73.381215,40 71.1426388,37.7614237 71.1426388,35 C71.1426388,32.2385763 73.381215,30 76.1426388,30 C78.9040625,30 81.1426388,32.2385763 81.1426388,35 C81.1426388,37.7614237 78.9040625,40 76.1426388,40 Z M76.1426388,38 C77.799493,38 79.1426388,36.6568542 79.1426388,35 C79.1426388,33.3431458 77.799493,32 76.1426388,32 C74.4857845,32 73.1426388,33.3431458 73.1426388,35 C73.1426388,36.6568542 74.4857845,38 76.1426388,38 Z M59.7825843,64.9506173 C59.2302995,64.9506173 58.7825843,65.3983325 58.7825843,65.9506173 L58.7825843,73.9506173 C58.7825843,74.502902 59.2302995,74.9506173 59.7825843,74.9506173 L72.7825843,74.9506173 C73.334869,74.9506173 73.7825843,74.502902 73.7825843,73.9506173 L73.7825843,65.9506173 C73.7825843,65.3983325 73.334869,64.9506173 72.7825843,64.9506173 L59.7825843,64.9506173 Z M61.2825843,65.9506173 C62.1110114,65.9506173 62.7825843,66.6221902 62.7825843,67.4506173 C62.7825843,68.2790444 62.1110114,68.9506173 61.2825843,68.9506173 C60.4541572,68.9506173 59.7825843,68.2790444 59.7825843,67.4506173 C59.7825843,66.6221902 60.4541572,65.9506173 61.2825843,65.9506173 Z M93.2174157,64.9506173 L80.2174157,64.9506173 C79.665131,64.9506173 79.2174157,65.3983325 79.2174157,65.9506173 L79.2174157,73.9506173 C79.2174157,74.502902 79.665131,74.9506173 80.2174157,74.9506173 L93.2174157,74.9506173 C93.7697005,74.9506173 94.2174157,74.502902 94.2174157,73.9506173 L94.2174157,65.9506173 C94.2174157,65.3983325 93.7697005,64.9506173 93.2174157,64.9506173 Z M91.7174157,65.9506173 C92.5458428,65.9506173 93.2174157,66.6221902 93.2174157,67.4506173 C93.2174157,68.2790444 92.5458428,68.9506173 91.7174157,68.9506173 C90.8889886,68.9506173 90.2174157,68.2790444 90.2174157,67.4506173 C90.2174157,66.6221902 90.8889886,65.9506173 91.7174157,65.9506173 Z" id="Combined-Shape" fill="url(#linearGradient-1)"></path>
                    </g>
                </g>
            </g>
        </g>
    </g>
</svg>