<svg height="36" width="32" xmlns="http://www.w3.org/2000/svg"><path d="m20.436 5.372a6.324 6.324 0 0 1 .536-2.688 4.048 4.048 0 0 1 1.54-1.78 4.292 4.292 0 0 1 2.324-.628 4.5 4.5 0 0 1 3.056 1 3.952 3.952 0 0 1 1.308 2.764h-2.512a1.872 1.872 0 0 0 -.48-1.368 1.976 1.976 0 0 0 -1.376-.4 1.504 1.504 0 0 0 -1.376.704 4.52 4.52 0 0 0 -.46 2.224v.74c0 1.115.133 1.915.4 2.4.307.492.866.77 1.444.716a1.93 1.93 0 0 0 1.328-.4 1.74 1.74 0 0 0 .488-1.3h2.504a3.812 3.812 0 0 1 -.588 1.924 3.548 3.548 0 0 1 -1.508 1.296 5.136 5.136 0 0 1 -2.22.46 4.1 4.1 0 0 1 -3.244-1.36c-.8-.893-1.2-2.156-1.2-3.788zm-20.036-4.94h7.2v1.944h-4.684v2.204h3.96v1.864h-3.96v2.496h4.684v1.936h-7.2zm14.048 33.42h-13.648v-2.952l6.288-6.608c1.55-1.763 2.324-3.164 2.324-4.204a2.924 2.924 0 0 0 -.552-1.92 1.964 1.964 0 0 0 -1.6-.656 2 2 0 0 0 -1.66.888 3.6 3.6 0 0 0 -.644 2.196h-4.556a6.4 6.4 0 0 1 .9-3.324 6.308 6.308 0 0 1 2.496-2.4 7.42 7.42 0 0 1 3.572-.86c2.112 0 3.739.488 4.88 1.464s1.712 2.377 1.712 4.204c0 .77-.145 1.532-.428 2.248a9.864 9.864 0 0 1 -1.336 2.296 33.668 33.668 0 0 1 -2.92 3.2l-2.524 2.912h7.696zm-.448-26.652h-1.348v3.692h-2.52v-10.46h4.112a4.588 4.588 0 0 1 2.904.824 2.8 2.8 0 0 1 1.048 2.344 3.392 3.392 0 0 1 -.44 1.804 3.132 3.132 0 0 1 -1.38 1.16l2.18 4.216v.108h-2.7zm9.18 10.324a1.84 1.84 0 0 1 1.736 1.044c.368.693.552 1.743.552 3.148v4.828c-.008 1.405-.196 2.437-.564 3.096a1.82 1.82 0 0 1 -1.704.988 1.848 1.848 0 0 1 -1.74-1.028c-.368-.675-.552-1.741-.552-3.2v-4.98c.027-1.307.217-2.283.572-2.928.326-.63.992-1.01 1.7-.968zm6.82 8.356c0 2.64-.593 4.676-1.78 6.108s-2.86 2.143-5.02 2.132c-2.176 0-3.859-.72-5.048-2.16-1.19-1.44-1.783-3.472-1.78-6.096v-3.572c0-2.64.593-4.676 1.78-6.108s2.863-2.148 5.028-2.148 3.844.72 5.036 2.16 1.787 3.476 1.784 6.108zm-15.756-23.512c.399-.029.79.112 1.08.388.256.292.387.673.364 1.06a1.46 1.46 0 0 1 -.364 1.052c-.292.27-.683.407-1.08.376h-1.6v-2.876z" fill="none" stroke="#7190eb" transform="translate(1 1)"/></svg>