<?xml version="1.0" encoding="UTF-8"?>
<svg width="25px" height="26px" viewBox="0 0 25 26" version="1.1" xmlns="http://www.w3.org/2000/svg" xmlns:xlink="http://www.w3.org/1999/xlink">
    <!-- Generator: Sketch 51.3 (57544) - http://www.bohemiancoding.com/sketch -->
    <title>distribute</title>
    <desc>Created with Sketch.</desc>
    <defs></defs>
    <g id="Page-1" stroke="none" stroke-width="1" fill="none" fill-rule="evenodd">
        <g id="lp-1" transform="translate(-207.000000, -508.000000)" fill-rule="nonzero" stroke="#FFFFFF" stroke-width="2">
            <g id="about" transform="translate(0.000000, 190.000000)">
                <g id="icons" transform="translate(70.000000, 312.000000)">
                    <g id="distribute" transform="translate(133.000000, 2.000000)">
                        <g id="Group-2">
                            <g id="Group" transform="translate(24.192388, 9.192388) rotate(45.000000) translate(-24.192388, -9.192388) translate(18.192388, 2.192388)">
                                <path d="M3,7.58578644 L7.58578644,3 L3,3 L3,7.58578644 Z" id="Rectangle-9" transform="translate(6.000000, 6.000000) rotate(45.000000) translate(-6.000000, -6.000000) "></path>
                                <path d="M6,2 L6,14" id="Path-3"></path>
                            </g>
                            <g id="Group-Copy" transform="translate(9.192388, 9.192388) scale(-1, 1) rotate(45.000000) translate(-9.192388, -9.192388) translate(3.192388, 2.192388)">
                                <path d="M3,7.58578644 L7.58578644,3 L3,3 L3,7.58578644 Z" id="Rectangle-9" transform="translate(6.000000, 6.000000) rotate(45.000000) translate(-6.000000, -6.000000) "></path>
                                <path d="M6,2 L6,14" id="Path-3"></path>
                            </g>
                        </g>
                        <g id="Group-2" transform="translate(17.000000, 24.500000) scale(1, -1) translate(-17.000000, -24.500000) translate(0.000000, 15.000000)">
                            <g id="Group" transform="translate(24.192388, 9.192388) rotate(45.000000) translate(-24.192388, -9.192388) translate(18.192388, 2.192388)">
                                <path d="M3,7.58578644 L7.58578644,3 L3,3 L3,7.58578644 Z" id="Rectangle-9" transform="translate(6.000000, 6.000000) rotate(45.000000) translate(-6.000000, -6.000000) "></path>
                                <path d="M6,2 L6,14" id="Path-3"></path>
                            </g>
                            <g id="Group-Copy" transform="translate(9.192388, 9.192388) scale(-1, 1) rotate(45.000000) translate(-9.192388, -9.192388) translate(3.192388, 2.192388)">
                                <path d="M3,7.58578644 L7.58578644,3 L3,3 L3,7.58578644 Z" id="Rectangle-9" transform="translate(6.000000, 6.000000) rotate(45.000000) translate(-6.000000, -6.000000) "></path>
                                <path d="M6,2 L6,14" id="Path-3"></path>
                            </g>
                        </g>
                    </g>
                </g>
            </g>
        </g>
    </g>
</svg>