<?xml version="1.0" encoding="utf-8" ?>
<svg xmlns="http://www.w3.org/2000/svg" xmlns:xlink="http://www.w3.org/1999/xlink" viewBox="-2 -2 54 39">
	<defs>
		<clipPath id="clip_0">
			<rect x="-72" y="-4005" width="1280" height="4993" clip-rule="evenodd"/>
		</clipPath>
	</defs>
	<g clip-path="url(#clip_0)">
		<path fill="none" stroke="rgb(124,139,228)" stroke-width="3" stroke-miterlimit="4" d="M4 0L44 0Q44.205 0 44.4069 0.0186425Q44.6087 0.037285 44.8058 0.0744179Q45.0028 0.111551 45.1934 0.166871Q45.384 0.222192 45.5667 0.295249Q45.7493 0.368306 45.9225 0.458503Q46.0957 0.5487 46.258 0.655303Q46.4203 0.761905 46.5704 0.884043Q46.7205 1.00618 46.8571 1.14286Q46.9938 1.27953 47.116 1.42964Q47.2381 1.57974 47.3447 1.74204Q47.4513 1.90434 47.5415 2.07752Q47.6317 2.2507 47.7048 2.43334Q47.7778 2.61598 47.8331 2.8066Q47.8885 2.99721 47.9256 3.19425Q47.9627 3.39129 47.9814 3.59314Q48 3.79499 48 4L48 31Q48 31.205 47.9814 31.4069Q47.9627 31.6087 47.9256 31.8057Q47.8885 32.0028 47.8331 32.1934Q47.7778 32.384 47.7048 32.5667Q47.6317 32.7493 47.5415 32.9225Q47.4513 33.0957 47.3447 33.258Q47.2381 33.4203 47.116 33.5704Q46.9938 33.7205 46.8571 33.8571Q46.7205 33.9938 46.5704 34.116Q46.4203 34.2381 46.258 34.3447Q46.0957 34.4513 45.9225 34.5415Q45.7493 34.6317 45.5667 34.7048Q45.384 34.7778 45.1934 34.8331Q45.0028 34.8885 44.8058 34.9256Q44.6087 34.9627 44.4069 34.9814Q44.205 35 44 35L4 35Q3.79499 35 3.59314 34.9814Q3.39129 34.9627 3.19425 34.9256Q2.99721 34.8885 2.8066 34.8331Q2.61598 34.7778 2.43334 34.7048Q2.2507 34.6317 2.07752 34.5415Q1.90434 34.4513 1.74204 34.3447Q1.57974 34.2381 1.42964 34.116Q1.27953 33.9938 1.14286 33.8571Q1.00618 33.7205 0.884043 33.5704Q0.761905 33.4203 0.655303 33.258Q0.5487 33.0957 0.458503 32.9225Q0.368306 32.7493 0.295249 32.5667Q0.222192 32.384 0.166871 32.1934Q0.111551 32.0028 0.0744179 31.8057Q0.037285 31.6087 0.0186425 31.4069Q0 31.205 0 31L0 4Q0 3.79499 0.0186425 3.59314Q0.037285 3.39129 0.0744179 3.19425Q0.111551 2.99721 0.166871 2.8066Q0.222192 2.61598 0.295249 2.43334Q0.368306 2.2507 0.458503 2.07752Q0.5487 1.90434 0.655303 1.74204Q0.761905 1.57974 0.884043 1.42964Q1.00618 1.27953 1.14286 1.14286Q1.27953 1.00618 1.42964 0.884043Q1.57974 0.761905 1.74204 0.655303Q1.90434 0.5487 2.07752 0.458503Q2.2507 0.368306 2.43334 0.295249Q2.61598 0.222192 2.8066 0.166871Q2.99721 0.111551 3.19425 0.0744179Q3.39129 0.037285 3.59314 0.0186425Q3.79499 0 4 0Z"/>
	</g>
	<defs>
		<clipPath id="clip_1">
			<rect x="-72" y="-4005" width="1280" height="4993" clip-rule="evenodd"/>
		</clipPath>
	</defs>
	<g clip-path="url(#clip_1)">
		<path fill="rgb(241,242,250)" stroke="none" transform="translate(28 10)" d="M4 0L21 0Q21.1027 0 21.2014 0.0186045Q21.3002 0.037209 21.3917 0.0738122Q21.4832 0.110415 21.5645 0.163826Q21.6458 0.217236 21.7143 0.285714Q21.7828 0.354193 21.8362 0.43551Q21.8896 0.516827 21.9262 0.608335Q21.9628 0.699843 21.9814 0.798563Q22 0.897283 22 1L22 14Q22 14.1027 21.9814 14.2014Q21.9628 14.3002 21.9262 14.3917Q21.8896 14.4832 21.8362 14.5645Q21.7828 14.6458 21.7143 14.7143Q21.6458 14.7828 21.5645 14.8362Q21.4832 14.8896 21.3917 14.9262Q21.3002 14.9628 21.2014 14.9814Q21.1027 15 21 15L4 15Q3.79499 15 3.59314 14.9814Q3.39129 14.9627 3.19425 14.9256Q2.99721 14.8884 2.8066 14.8331Q2.61598 14.7778 2.43334 14.7048Q2.2507 14.6317 2.07752 14.5415Q1.90434 14.4513 1.74204 14.3447Q1.57974 14.2381 1.42964 14.116Q1.27953 13.9938 1.14286 13.8571Q1.00618 13.7205 0.884043 13.5704Q0.761905 13.4203 0.655303 13.258Q0.5487 13.0957 0.458503 12.9225Q0.368306 12.7493 0.295249 12.5667Q0.222192 12.384 0.166871 12.1934Q0.111551 12.0028 0.0744179 11.8057Q0.037285 11.6087 0.0186425 11.4069Q0 11.205 0 11L0 4Q0 3.79499 0.0186425 3.59314Q0.037285 3.39129 0.0744179 3.19425Q0.111551 2.99721 0.166871 2.8066Q0.222192 2.61598 0.295249 2.43334Q0.368306 2.2507 0.458503 2.07752Q0.5487 1.90434 0.655303 1.74204Q0.761905 1.57974 0.884043 1.42964Q1.00618 1.27953 1.14286 1.14286Q1.27953 1.00618 1.42964 0.884043Q1.57974 0.761905 1.74204 0.655303Q1.90434 0.5487 2.07752 0.458503Q2.2507 0.368306 2.43334 0.295249Q2.61598 0.222192 2.8066 0.166871Q2.99721 0.111551 3.19425 0.0744179Q3.39129 0.037285 3.59314 0.0186425Q3.79499 0 4 0Z"/>
	</g>
	<defs>
		<clipPath id="clip_2">
			<rect x="-72" y="-4005" width="1280" height="4993" clip-rule="evenodd"/>
		</clipPath>
	</defs>
	<g clip-path="url(#clip_2)">
		<path fill="none" stroke="rgb(124,139,228)" stroke-width="3" stroke-miterlimit="4" transform="translate(28 10)" d="M4 0L21 0Q21.1027 0 21.2014 0.0186045Q21.3002 0.037209 21.3917 0.0738122Q21.4832 0.110415 21.5645 0.163826Q21.6458 0.217236 21.7143 0.285714Q21.7828 0.354193 21.8362 0.43551Q21.8896 0.516827 21.9262 0.608335Q21.9628 0.699843 21.9814 0.798563Q22 0.897283 22 1L22 14Q22 14.1027 21.9814 14.2014Q21.9628 14.3002 21.9262 14.3917Q21.8896 14.4832 21.8362 14.5645Q21.7828 14.6458 21.7143 14.7143Q21.6458 14.7828 21.5645 14.8362Q21.4832 14.8896 21.3917 14.9262Q21.3002 14.9628 21.2014 14.9814Q21.1027 15 21 15L4 15Q3.79499 15 3.59314 14.9814Q3.39129 14.9627 3.19425 14.9256Q2.99721 14.8884 2.8066 14.8331Q2.61598 14.7778 2.43334 14.7048Q2.2507 14.6317 2.07752 14.5415Q1.90434 14.4513 1.74204 14.3447Q1.57974 14.2381 1.42964 14.116Q1.27953 13.9938 1.14286 13.8571Q1.00618 13.7205 0.884043 13.5704Q0.761905 13.4203 0.655303 13.258Q0.5487 13.0957 0.458503 12.9225Q0.368306 12.7493 0.295249 12.5667Q0.222192 12.384 0.166871 12.1934Q0.111551 12.0028 0.0744179 11.8057Q0.037285 11.6087 0.0186425 11.4069Q0 11.205 0 11L0 4Q0 3.79499 0.0186425 3.59314Q0.037285 3.39129 0.0744179 3.19425Q0.111551 2.99721 0.166871 2.8066Q0.222192 2.61598 0.295249 2.43334Q0.368306 2.2507 0.458503 2.07752Q0.5487 1.90434 0.655303 1.74204Q0.761905 1.57974 0.884043 1.42964Q1.00618 1.27953 1.14286 1.14286Q1.27953 1.00618 1.42964 0.884043Q1.57974 0.761905 1.74204 0.655303Q1.90434 0.5487 2.07752 0.458503Q2.2507 0.368306 2.43334 0.295249Q2.61598 0.222192 2.8066 0.166871Q2.99721 0.111551 3.19425 0.0744179Q3.39129 0.037285 3.59314 0.0186425Q3.79499 0 4 0Z"/>
	</g>
	<defs>
		<clipPath id="clip_3">
			<rect x="-72" y="-4005" width="1280" height="4993" clip-rule="evenodd"/>
		</clipPath>
	</defs>
	<g clip-path="url(#clip_3)">
		<path fill="rgb(124,139,228)" stroke="none" transform="translate(40 14)" d="M3 6C4.65685 6 6 4.65685 6 3C6 1.34315 4.65685 0 3 0C1.34315 0 0 1.34315 0 3C0 4.65685 1.34315 6 3 6Z"/>
	</g>

</svg>