<?xml version="1.0" encoding="utf-8" ?>
<svg xmlns="http://www.w3.org/2000/svg" xmlns:xlink="http://www.w3.org/1999/xlink" viewBox="0 0 50 50">
	<defs>
		<clipPath id="clip_0">
			<rect x="-646" y="-3993" width="1280" height="4993" clip-rule="evenodd"/>
		</clipPath>
	</defs>
	<g clip-path="url(#clip_0)">
		<path fill="rgb(124,139,228)" stroke="none" transform="matrix(0.5 0.866025 -0.866025 0.5 38.0071 4.33008)" d="M1.5 0L1.5 0Q1.57688 0 1.65257 0.00699093Q1.72827 0.0139819 1.80216 0.0279067Q1.87604 0.0418316 1.94753 0.0625768Q2.01901 0.0833219 2.0875 0.110718Q2.15599 0.138115 2.22093 0.171939Q2.28587 0.205763 2.34674 0.245739Q2.4076 0.285714 2.46389 0.331516Q2.52017 0.377318 2.57143 0.428571Q2.62268 0.479825 2.66848 0.536113Q2.71429 0.592401 2.75426 0.653265Q2.79424 0.714128 2.82806 0.779069Q2.86189 0.844011 2.88928 0.912502Q2.91668 0.980993 2.93742 1.05247Q2.95817 1.12396 2.97209 1.19784Q2.98602 1.27173 2.99301 1.34743Q3 1.42312 3 1.5L3 39.5Q3 39.5769 2.99301 39.6526Q2.98602 39.7283 2.97209 39.8022Q2.95817 39.876 2.93742 39.9475Q2.91668 40.019 2.88928 40.0875Q2.86189 40.156 2.82806 40.2209Q2.79424 40.2859 2.75426 40.3467Q2.71429 40.4076 2.66848 40.4639Q2.62268 40.5202 2.57143 40.5714Q2.52017 40.6227 2.46389 40.6685Q2.4076 40.7143 2.34674 40.7543Q2.28587 40.7942 2.22093 40.8281Q2.15599 40.8619 2.0875 40.8893Q2.01901 40.9167 1.94753 40.9374Q1.87604 40.9582 1.80216 40.9721Q1.72827 40.986 1.65257 40.993Q1.57688 41 1.5 41L1.5 41Q1.42312 41 1.34743 40.993Q1.27173 40.986 1.19784 40.9721Q1.12396 40.9582 1.05247 40.9374Q0.980993 40.9167 0.912502 40.8893Q0.844011 40.8619 0.779069 40.8281Q0.714128 40.7942 0.653264 40.7543Q0.592401 40.7143 0.536113 40.6685Q0.479825 40.6227 0.428571 40.5714Q0.377318 40.5202 0.331516 40.4639Q0.285714 40.4076 0.245739 40.3467Q0.205763 40.2859 0.171939 40.2209Q0.138115 40.156 0.110718 40.0875Q0.0833219 40.019 0.0625768 39.9475Q0.0418316 39.876 0.0279067 39.8022Q0.0139819 39.7283 0.00699093 39.6526Q0 39.5769 0 39.5L0 1.5Q0 1.42312 0.00699093 1.34743Q0.0139819 1.27173 0.0279067 1.19784Q0.0418316 1.12396 0.0625768 1.05247Q0.0833219 0.980993 0.110718 0.912502Q0.138115 0.844011 0.171939 0.779069Q0.205763 0.714128 0.245739 0.653264Q0.285714 0.592401 0.331516 0.536113Q0.377318 0.479825 0.428571 0.428571Q0.479825 0.377318 0.536113 0.331516Q0.592401 0.285714 0.653265 0.245739Q0.714128 0.205763 0.779069 0.171939Q0.844011 0.138115 0.912502 0.110718Q0.980993 0.0833219 1.05247 0.0625768Q1.12396 0.0418316 1.19784 0.0279067Q1.27173 0.0139819 1.34743 0.00699093Q1.42312 0 1.5 0Z"/>
	</g>
	<defs>
		<clipPath id="clip_1">
			<rect x="-646" y="-3993" width="1280" height="4993" clip-rule="evenodd"/>
		</clipPath>
	</defs>
	<g clip-path="url(#clip_1)">
		<path fill="rgb(124,139,228)" stroke="none" transform="matrix(-0.173648 0.984808 -0.984808 -0.173648 38.3579 4.93799)" d="M1.5 0L1.5 0Q1.57688 0 1.65257 0.00699093Q1.72827 0.0139819 1.80216 0.0279067Q1.87604 0.0418316 1.94753 0.0625768Q2.01901 0.0833219 2.0875 0.110718Q2.15599 0.138115 2.22093 0.171939Q2.28587 0.205763 2.34674 0.245739Q2.4076 0.285714 2.46389 0.331516Q2.52017 0.377318 2.57143 0.428571Q2.62268 0.479825 2.66848 0.536113Q2.71429 0.592401 2.75426 0.653265Q2.79424 0.714128 2.82806 0.779069Q2.86189 0.844011 2.88928 0.912502Q2.91668 0.980993 2.93742 1.05247Q2.95817 1.12396 2.97209 1.19784Q2.98602 1.27173 2.99301 1.34743Q3 1.42312 3 1.5L3 6.5Q3 6.57688 2.99301 6.65258Q2.98602 6.72827 2.97209 6.80216Q2.95817 6.87605 2.93742 6.94753Q2.91668 7.01901 2.88928 7.0875Q2.86189 7.15599 2.82806 7.22093Q2.79424 7.28587 2.75426 7.34674Q2.71429 7.4076 2.66848 7.46389Q2.62268 7.52017 2.57143 7.57143Q2.52017 7.62268 2.46389 7.66848Q2.4076 7.71429 2.34674 7.75426Q2.28587 7.79424 2.22093 7.82806Q2.15599 7.86189 2.0875 7.88928Q2.01901 7.91668 1.94753 7.93742Q1.87604 7.95817 1.80216 7.97209Q1.72827 7.98602 1.65257 7.99301Q1.57688 8 1.5 8L1.5 8Q1.42312 8 1.34743 7.99301Q1.27173 7.98602 1.19784 7.97209Q1.12396 7.95817 1.05247 7.93742Q0.980993 7.91668 0.912502 7.88928Q0.844011 7.86189 0.779069 7.82806Q0.714128 7.79424 0.653264 7.75426Q0.592401 7.71429 0.536113 7.66848Q0.479825 7.62268 0.428571 7.57143Q0.377318 7.52017 0.331516 7.46389Q0.285714 7.4076 0.245739 7.34674Q0.205763 7.28587 0.171939 7.22093Q0.138115 7.15599 0.110718 7.0875Q0.0833219 7.01901 0.0625768 6.94753Q0.0418316 6.87605 0.0279067 6.80216Q0.0139819 6.72827 0.00699093 6.65258Q0 6.57688 0 6.5L0 1.5Q0 1.42312 0.00699093 1.34743Q0.0139819 1.27173 0.0279067 1.19784Q0.0418316 1.12396 0.0625768 1.05247Q0.0833219 0.980993 0.110718 0.912502Q0.138115 0.844011 0.171939 0.779069Q0.205763 0.714128 0.245739 0.653264Q0.285714 0.592401 0.331516 0.536113Q0.377318 0.479825 0.428571 0.428571Q0.479825 0.377318 0.536113 0.331516Q0.592401 0.285714 0.653265 0.245739Q0.714128 0.205763 0.779069 0.171939Q0.844011 0.138115 0.912502 0.110718Q0.980993 0.0833219 1.05247 0.0625768Q1.12396 0.0418316 1.19784 0.0279067Q1.27173 0.0139819 1.34743 0.00699093Q1.42312 0 1.5 0Z"/>
	</g>
	<defs>
		<clipPath id="clip_2">
			<rect x="-646" y="-3993" width="1280" height="4993" clip-rule="evenodd"/>
		</clipPath>
	</defs>
	<g clip-path="url(#clip_2)">
		<path fill="rgb(124,139,228)" stroke="none" transform="matrix(0.173648 -0.984808 -0.984808 -0.173648 40.0571 11.7383)" d="M1.5 0L1.5 0Q1.57688 0 1.65257 0.00699093Q1.72827 0.0139819 1.80216 0.0279067Q1.87604 0.0418316 1.94753 0.0625768Q2.01901 0.0833219 2.0875 0.110718Q2.15599 0.138115 2.22093 0.171939Q2.28587 0.205763 2.34674 0.245739Q2.4076 0.285714 2.46389 0.331516Q2.52017 0.377318 2.57143 0.428571Q2.62268 0.479825 2.66848 0.536113Q2.71429 0.592401 2.75426 0.653265Q2.79424 0.714128 2.82806 0.779069Q2.86189 0.844011 2.88928 0.912502Q2.91668 0.980993 2.93742 1.05247Q2.95817 1.12396 2.97209 1.19784Q2.98602 1.27173 2.99301 1.34743Q3 1.42312 3 1.5L3 6.5Q3 6.57688 2.99301 6.65258Q2.98602 6.72827 2.97209 6.80216Q2.95817 6.87605 2.93742 6.94753Q2.91668 7.01901 2.88928 7.0875Q2.86189 7.15599 2.82806 7.22093Q2.79424 7.28587 2.75426 7.34674Q2.71429 7.4076 2.66848 7.46389Q2.62268 7.52017 2.57143 7.57143Q2.52017 7.62268 2.46389 7.66848Q2.4076 7.71429 2.34674 7.75426Q2.28587 7.79424 2.22093 7.82806Q2.15599 7.86189 2.0875 7.88928Q2.01901 7.91668 1.94753 7.93742Q1.87604 7.95817 1.80216 7.97209Q1.72827 7.98602 1.65257 7.99301Q1.57688 8 1.5 8L1.5 8Q1.42312 8 1.34743 7.99301Q1.27173 7.98602 1.19784 7.97209Q1.12396 7.95817 1.05247 7.93742Q0.980993 7.91668 0.912502 7.88928Q0.844011 7.86189 0.779069 7.82806Q0.714128 7.79424 0.653264 7.75426Q0.592401 7.71429 0.536113 7.66848Q0.479825 7.62268 0.428571 7.57143Q0.377318 7.52017 0.331516 7.46389Q0.285714 7.4076 0.245739 7.34674Q0.205763 7.28587 0.171939 7.22093Q0.138115 7.15599 0.110718 7.0875Q0.0833219 7.01901 0.0625768 6.94753Q0.0418316 6.87605 0.0279067 6.80216Q0.0139819 6.72827 0.00699093 6.65258Q0 6.57688 0 6.5L0 1.5Q0 1.42312 0.00699093 1.34743Q0.0139819 1.27173 0.0279067 1.19784Q0.0418316 1.12396 0.0625768 1.05247Q0.0833219 0.980993 0.110718 0.912502Q0.138115 0.844011 0.171939 0.779069Q0.205763 0.714128 0.245739 0.653264Q0.285714 0.592401 0.331516 0.536113Q0.377318 0.479825 0.428571 0.428571Q0.479825 0.377318 0.536113 0.331516Q0.592401 0.285714 0.653265 0.245739Q0.714128 0.205763 0.779069 0.171939Q0.844011 0.138115 0.912502 0.110718Q0.980993 0.0833219 1.05247 0.0625768Q1.12396 0.0418316 1.19784 0.0279067Q1.27173 0.0139819 1.34743 0.00699093Q1.42312 0 1.5 0Z"/>
	</g>
	<defs>
		<clipPath id="clip_3">
			<rect x="-646" y="-3993" width="1280" height="4993" clip-rule="evenodd"/>
		</clipPath>
	</defs>
	<g clip-path="url(#clip_3)">
		<path fill="none" stroke="rgb(124,139,228)" stroke-width="3" stroke-miterlimit="4" transform="translate(5 34)" d="M0 16L0 2Q0 1.89749 0.00932124 1.79657Q0.0186425 1.69564 0.037209 1.59713Q0.0557754 1.49861 0.0834357 1.4033Q0.111096 1.30799 0.147624 1.21667Q0.184153 1.12535 0.229252 1.03876Q0.27435 0.95217 0.327651 0.871019Q0.380953 0.789868 0.442021 0.714818Q0.50309 0.639767 0.571429 0.571429Q0.639767 0.50309 0.714818 0.442021Q0.789868 0.380953 0.871019 0.327651Q0.95217 0.27435 1.03876 0.229252Q1.12535 0.184153 1.21667 0.147624Q1.30799 0.111096 1.4033 0.0834357Q1.49861 0.0557754 1.59713 0.037209Q1.69564 0.0186425 1.79657 0.00932124Q1.89749 0 2 0L6 0Q6.10251 0 6.20343 0.00932124Q6.30436 0.0186425 6.40287 0.037209Q6.50139 0.0557754 6.5967 0.0834357Q6.69201 0.111096 6.78333 0.147624Q6.87465 0.184153 6.96124 0.229252Q7.04783 0.27435 7.12898 0.327651Q7.21013 0.380953 7.28518 0.442021Q7.36023 0.50309 7.42857 0.571429Q7.49691 0.639767 7.55798 0.714818Q7.61905 0.789868 7.67235 0.871019Q7.72565 0.95217 7.77075 1.03876Q7.81585 1.12535 7.85238 1.21667Q7.88891 1.30799 7.91656 1.4033Q7.94423 1.49861 7.96279 1.59713Q7.98136 1.69564 7.99068 1.79657Q8 1.89749 8 2L8 16"/>
	</g>
	<defs>
		<clipPath id="clip_4">
			<rect x="-646" y="-3993" width="1280" height="4993" clip-rule="evenodd"/>
		</clipPath>
	</defs>
	<g clip-path="url(#clip_4)">
		<path fill="none" stroke="rgb(124,139,228)" stroke-width="3" stroke-miterlimit="4" transform="translate(19 26)" d="M0 24L0 2Q0 1.89749 0.00932124 1.79657Q0.0186425 1.69564 0.037209 1.59713Q0.0557754 1.49861 0.0834357 1.4033Q0.111096 1.30799 0.147624 1.21667Q0.184153 1.12535 0.229252 1.03876Q0.27435 0.95217 0.327651 0.871019Q0.380953 0.789868 0.442021 0.714818Q0.50309 0.639767 0.571429 0.571429Q0.639767 0.50309 0.714818 0.442021Q0.789868 0.380953 0.871019 0.327651Q0.95217 0.27435 1.03876 0.229252Q1.12535 0.184153 1.21667 0.147624Q1.30799 0.111096 1.4033 0.0834357Q1.49861 0.0557754 1.59713 0.037209Q1.69564 0.0186425 1.79657 0.00932124Q1.89749 0 2 0L6 0Q6.10251 0 6.20343 0.00932124Q6.30436 0.0186425 6.40287 0.037209Q6.50139 0.0557754 6.5967 0.0834357Q6.69201 0.111096 6.78333 0.147624Q6.87465 0.184153 6.96124 0.229252Q7.04783 0.27435 7.12898 0.327651Q7.21013 0.380953 7.28518 0.442021Q7.36023 0.50309 7.42857 0.571429Q7.49691 0.639767 7.55798 0.714818Q7.61905 0.789868 7.67235 0.871019Q7.72565 0.95217 7.77075 1.03876Q7.81585 1.12535 7.85238 1.21667Q7.88891 1.30799 7.91656 1.4033Q7.94423 1.49861 7.96279 1.59713Q7.98136 1.69564 7.99068 1.79657Q8 1.89749 8 2L8 24"/>
	</g>
	<defs>
		<clipPath id="clip_5">
			<rect x="-646" y="-3993" width="1280" height="4993" clip-rule="evenodd"/>
		</clipPath>
	</defs>
	<g clip-path="url(#clip_5)">
		<path fill="none" stroke="rgb(124,139,228)" stroke-width="3" stroke-miterlimit="4" transform="translate(33 18)" d="M0 32L0 2Q0 1.89749 0.00932124 1.79657Q0.0186425 1.69564 0.037209 1.59713Q0.0557754 1.49861 0.0834357 1.4033Q0.111096 1.30799 0.147624 1.21667Q0.184153 1.12535 0.229252 1.03876Q0.27435 0.95217 0.327651 0.871019Q0.380953 0.789868 0.442021 0.714818Q0.50309 0.639767 0.571429 0.571429Q0.639767 0.50309 0.714818 0.442021Q0.789868 0.380953 0.871019 0.327651Q0.95217 0.27435 1.03876 0.229252Q1.12535 0.184153 1.21667 0.147624Q1.30799 0.111096 1.4033 0.0834357Q1.49861 0.0557754 1.59713 0.037209Q1.69564 0.0186425 1.79657 0.00932124Q1.89749 0 2 0L6 0Q6.10251 0 6.20343 0.00932124Q6.30436 0.0186425 6.40287 0.037209Q6.50139 0.0557754 6.5967 0.0834357Q6.69201 0.111096 6.78333 0.147624Q6.87465 0.184153 6.96124 0.229252Q7.04783 0.27435 7.12898 0.327651Q7.21013 0.380953 7.28518 0.442021Q7.36023 0.50309 7.42857 0.571429Q7.49691 0.639767 7.55798 0.714818Q7.61905 0.789868 7.67235 0.871019Q7.72565 0.95217 7.77075 1.03876Q7.81585 1.12535 7.85238 1.21667Q7.88891 1.30799 7.91656 1.4033Q7.94423 1.49861 7.96279 1.59713Q7.98136 1.69564 7.99068 1.79657Q8 1.89749 8 2L8 32"/>
	</g>

</svg>