<?xml version="1.0" encoding="utf-8" ?>
<svg xmlns="http://www.w3.org/2000/svg" xmlns:xlink="http://www.w3.org/1999/xlink" viewBox="-2 -2 58 39" >
	<defs>
		<clipPath id="clip_0">
			<rect x="-947" y="-4008" width="1280" height="4993" clip-rule="evenodd"/>
		</clipPath>
	</defs>
	<g clip-path="url(#clip_0)">
		<path fill="rgb(241,242,250)" stroke="none" transform="translate(6 5)" d="M4 0L44 0Q44.205 0 44.4069 0.0186425Q44.6087 0.037285 44.8058 0.0744179Q45.0028 0.111551 45.1934 0.166871Q45.384 0.222192 45.5667 0.295249Q45.7493 0.368306 45.9225 0.458503Q46.0957 0.5487 46.258 0.655303Q46.4203 0.761905 46.5704 0.884043Q46.7205 1.00618 46.8571 1.14286Q46.9938 1.27953 47.116 1.42964Q47.2381 1.57974 47.3447 1.74204Q47.4513 1.90434 47.5415 2.07752Q47.6317 2.2507 47.7048 2.43334Q47.7778 2.61598 47.8331 2.8066Q47.8885 2.99721 47.9256 3.19425Q47.9627 3.39129 47.9814 3.59314Q48 3.79499 48 4L48 26Q48 26.205 47.9814 26.4069Q47.9627 26.6087 47.9256 26.8058Q47.8885 27.0028 47.8331 27.1934Q47.7778 27.384 47.7048 27.5667Q47.6317 27.7493 47.5415 27.9225Q47.4513 28.0957 47.3447 28.258Q47.2381 28.4203 47.116 28.5704Q46.9938 28.7205 46.8571 28.8571Q46.7205 28.9938 46.5704 29.116Q46.4203 29.2381 46.258 29.3447Q46.0957 29.4513 45.9225 29.5415Q45.7493 29.6317 45.5667 29.7048Q45.384 29.7778 45.1934 29.8331Q45.0028 29.8885 44.8058 29.9256Q44.6087 29.9627 44.4069 29.9814Q44.205 30 44 30L4 30Q3.79499 30 3.59314 29.9814Q3.39129 29.9627 3.19425 29.9256Q2.99721 29.8885 2.8066 29.8331Q2.61598 29.7778 2.43334 29.7048Q2.2507 29.6317 2.07752 29.5415Q1.90434 29.4513 1.74204 29.3447Q1.57974 29.2381 1.42964 29.116Q1.27953 28.9938 1.14286 28.8571Q1.00618 28.7205 0.884043 28.5704Q0.761905 28.4203 0.655303 28.258Q0.5487 28.0957 0.458503 27.9225Q0.368306 27.7493 0.295249 27.5667Q0.222192 27.384 0.166871 27.1934Q0.111551 27.0028 0.0744179 26.8058Q0.037285 26.6087 0.0186425 26.4069Q0 26.205 0 26L0 4Q0 3.79499 0.0186425 3.59314Q0.037285 3.39129 0.0744179 3.19425Q0.111551 2.99721 0.166871 2.8066Q0.222192 2.61598 0.295249 2.43334Q0.368306 2.2507 0.458503 2.07752Q0.5487 1.90434 0.655303 1.74204Q0.761905 1.57974 0.884043 1.42964Q1.00618 1.27953 1.14286 1.14286Q1.27953 1.00618 1.42964 0.884043Q1.57974 0.761905 1.74204 0.655303Q1.90434 0.5487 2.07752 0.458503Q2.2507 0.368306 2.43334 0.295249Q2.61598 0.222192 2.8066 0.166871Q2.99721 0.111551 3.19425 0.0744179Q3.39129 0.037285 3.59314 0.0186425Q3.79499 0 4 0Z"/>
	</g>
	<defs>
		<clipPath id="clip_1">
			<rect x="-947" y="-4008" width="1280" height="4993" clip-rule="evenodd"/>
		</clipPath>
	</defs>
	<g clip-path="url(#clip_1)">
		<path fill="none" stroke="rgb(124,139,228)" stroke-width="3" stroke-miterlimit="4" transform="translate(6 5)" d="M4 0L44 0Q44.205 0 44.4069 0.0186425Q44.6087 0.037285 44.8058 0.0744179Q45.0028 0.111551 45.1934 0.166871Q45.384 0.222192 45.5667 0.295249Q45.7493 0.368306 45.9225 0.458503Q46.0957 0.5487 46.258 0.655303Q46.4203 0.761905 46.5704 0.884043Q46.7205 1.00618 46.8571 1.14286Q46.9938 1.27953 47.116 1.42964Q47.2381 1.57974 47.3447 1.74204Q47.4513 1.90434 47.5415 2.07752Q47.6317 2.2507 47.7048 2.43334Q47.7778 2.61598 47.8331 2.8066Q47.8885 2.99721 47.9256 3.19425Q47.9627 3.39129 47.9814 3.59314Q48 3.79499 48 4L48 26Q48 26.205 47.9814 26.4069Q47.9627 26.6087 47.9256 26.8058Q47.8885 27.0028 47.8331 27.1934Q47.7778 27.384 47.7048 27.5667Q47.6317 27.7493 47.5415 27.9225Q47.4513 28.0957 47.3447 28.258Q47.2381 28.4203 47.116 28.5704Q46.9938 28.7205 46.8571 28.8571Q46.7205 28.9938 46.5704 29.116Q46.4203 29.2381 46.258 29.3447Q46.0957 29.4513 45.9225 29.5415Q45.7493 29.6317 45.5667 29.7048Q45.384 29.7778 45.1934 29.8331Q45.0028 29.8885 44.8058 29.9256Q44.6087 29.9627 44.4069 29.9814Q44.205 30 44 30L4 30Q3.79499 30 3.59314 29.9814Q3.39129 29.9627 3.19425 29.9256Q2.99721 29.8885 2.8066 29.8331Q2.61598 29.7778 2.43334 29.7048Q2.2507 29.6317 2.07752 29.5415Q1.90434 29.4513 1.74204 29.3447Q1.57974 29.2381 1.42964 29.116Q1.27953 28.9938 1.14286 28.8571Q1.00618 28.7205 0.884043 28.5704Q0.761905 28.4203 0.655303 28.258Q0.5487 28.0957 0.458503 27.9225Q0.368306 27.7493 0.295249 27.5667Q0.222192 27.384 0.166871 27.1934Q0.111551 27.0028 0.0744179 26.8058Q0.037285 26.6087 0.0186425 26.4069Q0 26.205 0 26L0 4Q0 3.79499 0.0186425 3.59314Q0.037285 3.39129 0.0744179 3.19425Q0.111551 2.99721 0.166871 2.8066Q0.222192 2.61598 0.295249 2.43334Q0.368306 2.2507 0.458503 2.07752Q0.5487 1.90434 0.655303 1.74204Q0.761905 1.57974 0.884043 1.42964Q1.00618 1.27953 1.14286 1.14286Q1.27953 1.00618 1.42964 0.884043Q1.57974 0.761905 1.74204 0.655303Q1.90434 0.5487 2.07752 0.458503Q2.2507 0.368306 2.43334 0.295249Q2.61598 0.222192 2.8066 0.166871Q2.99721 0.111551 3.19425 0.0744179Q3.39129 0.037285 3.59314 0.0186425Q3.79499 0 4 0Z"/>
	</g>
	<defs>
		<clipPath id="clip_2">
			<rect x="-947" y="-4008" width="1280" height="4993" clip-rule="evenodd"/>
		</clipPath>
	</defs>
	<g clip-path="url(#clip_2)">
		<path fill="rgb(241,242,250)" stroke="none" d="M4 0L44 0Q44.205 0 44.4069 0.0186425Q44.6087 0.037285 44.8058 0.0744179Q45.0028 0.111551 45.1934 0.166871Q45.384 0.222192 45.5667 0.295249Q45.7493 0.368306 45.9225 0.458503Q46.0957 0.5487 46.258 0.655303Q46.4203 0.761905 46.5704 0.884043Q46.7205 1.00618 46.8571 1.14286Q46.9938 1.27953 47.116 1.42964Q47.2381 1.57974 47.3447 1.74204Q47.4513 1.90434 47.5415 2.07752Q47.6317 2.2507 47.7048 2.43334Q47.7778 2.61598 47.8331 2.8066Q47.8885 2.99721 47.9256 3.19425Q47.9627 3.39129 47.9814 3.59314Q48 3.79499 48 4L48 25Q48 25.205 47.9814 25.4069Q47.9627 25.6087 47.9256 25.8058Q47.8885 26.0028 47.8331 26.1934Q47.7778 26.384 47.7048 26.5667Q47.6317 26.7493 47.5415 26.9225Q47.4513 27.0957 47.3447 27.258Q47.2381 27.4203 47.116 27.5704Q46.9938 27.7205 46.8571 27.8571Q46.7205 27.9938 46.5704 28.116Q46.4203 28.2381 46.258 28.3447Q46.0957 28.4513 45.9225 28.5415Q45.7493 28.6317 45.5667 28.7048Q45.384 28.7778 45.1934 28.8331Q45.0028 28.8885 44.8058 28.9256Q44.6087 28.9627 44.4069 28.9814Q44.205 29 44 29L4 29Q3.79499 29 3.59314 28.9814Q3.39129 28.9627 3.19425 28.9256Q2.99721 28.8885 2.8066 28.8331Q2.61598 28.7778 2.43334 28.7048Q2.2507 28.6317 2.07752 28.5415Q1.90434 28.4513 1.74204 28.3447Q1.57974 28.2381 1.42964 28.116Q1.27953 27.9938 1.14286 27.8571Q1.00618 27.7205 0.884043 27.5704Q0.761905 27.4203 0.655303 27.258Q0.5487 27.0957 0.458503 26.9225Q0.368306 26.7493 0.295249 26.5667Q0.222192 26.384 0.166871 26.1934Q0.111551 26.0028 0.0744179 25.8058Q0.037285 25.6087 0.0186425 25.4069Q0 25.205 0 25L0 4Q0 3.79499 0.0186425 3.59314Q0.037285 3.39129 0.0744179 3.19425Q0.111551 2.99721 0.166871 2.8066Q0.222192 2.61598 0.295249 2.43334Q0.368306 2.2507 0.458503 2.07752Q0.5487 1.90434 0.655303 1.74204Q0.761905 1.57974 0.884043 1.42964Q1.00618 1.27953 1.14286 1.14286Q1.27953 1.00618 1.42964 0.884043Q1.57974 0.761905 1.74204 0.655303Q1.90434 0.5487 2.07752 0.458503Q2.2507 0.368306 2.43334 0.295249Q2.61598 0.222192 2.8066 0.166871Q2.99721 0.111551 3.19425 0.0744179Q3.39129 0.037285 3.59314 0.0186425Q3.79499 0 4 0Z"/>
	</g>
	<defs>
		<clipPath id="clip_3">
			<rect x="-947" y="-4008" width="1280" height="4993" clip-rule="evenodd"/>
		</clipPath>
	</defs>
	<g clip-path="url(#clip_3)">
		<path fill="none" stroke="rgb(124,139,228)" stroke-width="3" stroke-miterlimit="4" d="M4 0L44 0Q44.205 0 44.4069 0.0186425Q44.6087 0.037285 44.8058 0.0744179Q45.0028 0.111551 45.1934 0.166871Q45.384 0.222192 45.5667 0.295249Q45.7493 0.368306 45.9225 0.458503Q46.0957 0.5487 46.258 0.655303Q46.4203 0.761905 46.5704 0.884043Q46.7205 1.00618 46.8571 1.14286Q46.9938 1.27953 47.116 1.42964Q47.2381 1.57974 47.3447 1.74204Q47.4513 1.90434 47.5415 2.07752Q47.6317 2.2507 47.7048 2.43334Q47.7778 2.61598 47.8331 2.8066Q47.8885 2.99721 47.9256 3.19425Q47.9627 3.39129 47.9814 3.59314Q48 3.79499 48 4L48 25Q48 25.205 47.9814 25.4069Q47.9627 25.6087 47.9256 25.8058Q47.8885 26.0028 47.8331 26.1934Q47.7778 26.384 47.7048 26.5667Q47.6317 26.7493 47.5415 26.9225Q47.4513 27.0957 47.3447 27.258Q47.2381 27.4203 47.116 27.5704Q46.9938 27.7205 46.8571 27.8571Q46.7205 27.9938 46.5704 28.116Q46.4203 28.2381 46.258 28.3447Q46.0957 28.4513 45.9225 28.5415Q45.7493 28.6317 45.5667 28.7048Q45.384 28.7778 45.1934 28.8331Q45.0028 28.8885 44.8058 28.9256Q44.6087 28.9627 44.4069 28.9814Q44.205 29 44 29L4 29Q3.79499 29 3.59314 28.9814Q3.39129 28.9627 3.19425 28.9256Q2.99721 28.8885 2.8066 28.8331Q2.61598 28.7778 2.43334 28.7048Q2.2507 28.6317 2.07752 28.5415Q1.90434 28.4513 1.74204 28.3447Q1.57974 28.2381 1.42964 28.116Q1.27953 27.9938 1.14286 27.8571Q1.00618 27.7205 0.884043 27.5704Q0.761905 27.4203 0.655303 27.258Q0.5487 27.0957 0.458503 26.9225Q0.368306 26.7493 0.295249 26.5667Q0.222192 26.384 0.166871 26.1934Q0.111551 26.0028 0.0744179 25.8058Q0.037285 25.6087 0.0186425 25.4069Q0 25.205 0 25L0 4Q0 3.79499 0.0186425 3.59314Q0.037285 3.39129 0.0744179 3.19425Q0.111551 2.99721 0.166871 2.8066Q0.222192 2.61598 0.295249 2.43334Q0.368306 2.2507 0.458503 2.07752Q0.5487 1.90434 0.655303 1.74204Q0.761905 1.57974 0.884043 1.42964Q1.00618 1.27953 1.14286 1.14286Q1.27953 1.00618 1.42964 0.884043Q1.57974 0.761905 1.74204 0.655303Q1.90434 0.5487 2.07752 0.458503Q2.2507 0.368306 2.43334 0.295249Q2.61598 0.222192 2.8066 0.166871Q2.99721 0.111551 3.19425 0.0744179Q3.39129 0.037285 3.59314 0.0186425Q3.79499 0 4 0Z"/>
	</g>
	<defs>
		<clipPath id="clip_4">
			<rect x="-947" y="-4008" width="1280" height="4993" clip-rule="evenodd"/>
		</clipPath>
	</defs>
	<g clip-path="url(#clip_4)">
		<path fill="rgb(241,242,250)" stroke="none" transform="translate(36 11)" d="M3 6C4.65685 6 6 4.65685 6 3C6 1.34315 4.65685 0 3 0C1.34315 0 0 1.34315 0 3C0 4.65685 1.34315 6 3 6Z"/>
	</g>
	<defs>
		<clipPath id="clip_5">
			<rect x="-947" y="-4008" width="1280" height="4993" clip-rule="evenodd"/>
		</clipPath>
	</defs>
	<g clip-path="url(#clip_5)">
		<path fill="none" stroke="rgb(124,139,228)" stroke-width="3" stroke-miterlimit="4" transform="translate(36 11)" d="M3 6C4.65685 6 6 4.65685 6 3C6 1.34315 4.65685 0 3 0C1.34315 0 0 1.34315 0 3C0 4.65685 1.34315 6 3 6Z"/>
	</g>
	<defs>
		<clipPath id="clip_6">
			<rect x="-947" y="-4008" width="1280" height="4993" clip-rule="evenodd"/>
		</clipPath>
	</defs>
	<g clip-path="url(#clip_6)">
		<path fill="rgb(241,242,250)" stroke="none" transform="translate(6 11)" d="M3 6C4.65685 6 6 4.65685 6 3C6 1.34315 4.65685 0 3 0C1.34315 0 0 1.34315 0 3C0 4.65685 1.34315 6 3 6Z"/>
	</g>
	<defs>
		<clipPath id="clip_7">
			<rect x="-947" y="-4008" width="1280" height="4993" clip-rule="evenodd"/>
		</clipPath>
	</defs>
	<g clip-path="url(#clip_7)">
		<path fill="none" stroke="rgb(124,139,228)" stroke-width="3" stroke-miterlimit="4" transform="translate(6 11)" d="M3 6C4.65685 6 6 4.65685 6 3C6 1.34315 4.65685 0 3 0C1.34315 0 0 1.34315 0 3C0 4.65685 1.34315 6 3 6Z"/>
	</g>
	<defs>
		<clipPath id="clip_8">
			<rect x="-947" y="-4008" width="1280" height="4993" clip-rule="evenodd"/>
		</clipPath>
	</defs>
	<g clip-path="url(#clip_8)">
		<path fill="rgb(241,242,250)" stroke="none" transform="translate(18 8)" d="M6 12C9.31371 12 12 9.31371 12 6C12 2.68629 9.31371 0 6 0C2.68629 0 0 2.68629 0 6C0 9.31371 2.68629 12 6 12Z"/>
	</g>
	<defs>
		<clipPath id="clip_9">
			<rect x="-947" y="-4008" width="1280" height="4993" clip-rule="evenodd"/>
		</clipPath>
	</defs>
	<g clip-path="url(#clip_9)">
		<path fill="none" stroke="rgb(124,139,228)" stroke-width="3" stroke-miterlimit="4" transform="translate(18 8)" d="M6 12C9.31371 12 12 9.31371 12 6C12 2.68629 9.31371 0 6 0C2.68629 0 0 2.68629 0 6C0 9.31371 2.68629 12 6 12Z"/>
	</g>

</svg>